<svg width="1148" height="256" viewBox="0 0 1148 256" fill="none" xmlns="http://www.w3.org/2000/svg">
<g clip-path="url(#clip0_143_1951)">
<rect width="1148" height="256" fill="white"/>
<rect y="-10" width="1148" height="284" fill="url(#paint0_linear_143_1951)"/>
<g filter="url(#filter0_f_143_1951)">
<path d="M744.2 129.697L747.338 139.576L755.307 146.2L745.431 149.336L738.806 157.307L735.668 147.429L727.697 140.806L737.575 137.668L744.2 129.697Z" fill="white"/>
</g>
<g opacity="0.2">
<path d="M834.987 75.4208C841.736 59.763 838.332 43.2445 827.385 38.5256C816.437 33.8067 802.091 42.6745 795.342 58.3322C788.593 73.99 791.996 90.5085 802.944 95.2274C813.891 99.9462 828.237 91.0785 834.987 75.4208Z" fill="#F0AA00"/>
<path d="M829.062 38.7206L832.566 42.1694L798.59 92.4107L795.086 88.9619L829.062 38.7206Z" fill="#F0AA00"/>
<path d="M831.901 72.3836C838.65 56.7259 835.246 40.2074 824.299 35.4885C813.351 30.7696 799.005 39.6374 792.256 55.2951C785.507 70.9529 788.91 87.4714 799.858 92.1903C810.805 96.9091 825.152 88.0414 831.901 72.3836Z" fill="#FFCC00"/>
<path d="M807.215 69.7988C813.425 69.3025 819.279 66.8168 824.099 61.3711C827.426 57.6122 831.921 53.0649 834.234 47.8006C833.211 44.2383 831.493 41.1108 829.062 38.7194C820.266 30.062 805.53 34.2897 796.147 48.165C792.312 53.8359 789.968 60.2392 789.133 66.4208C794.784 69.1143 800.937 70.3013 807.215 69.7988Z" fill="#FCDC59"/>
<path d="M824.137 74.9381C816.927 85.6013 805.7 88.9486 799.061 82.4142C792.421 75.8798 792.885 61.9391 800.096 51.2768C807.306 40.6136 818.533 37.2674 825.172 43.8017C831.811 50.3361 831.349 64.2761 824.137 74.9381Z" fill="#DA8100"/>
<path d="M824.404 75.9769C817.367 86.3826 806.451 89.6876 800.02 83.3581C793.59 77.0297 794.083 63.4643 801.119 53.0594C808.155 42.6537 819.072 39.3486 825.502 45.677C831.932 52.0066 831.441 65.5711 824.404 75.9769Z" fill="#F0AA00"/>
<path d="M823.668 56.9477L820.402 54.2819C820.339 55.6828 819.84 57.3644 818.689 59.3078L820.826 61.1761L819.446 63.1777L817.337 61.2842C814.374 64.9602 811.057 65.8456 808.448 63.7595C807.841 67.8338 806.82 72.7328 805.755 77.6336L803.938 75.6605C804.86 71.2852 805.699 67.2135 806.464 62.3643L808.096 60.2795L809.187 61.161C811.315 62.9544 813.66 62.3152 815.666 59.8511L811.135 56.2595L812.482 54.4208L816.972 57.8759C818.287 55.3644 818.029 53.3924 816.282 52.1147L814.849 51.1112L816.634 48.5459L825.074 54.8046L823.668 56.9477Z" fill="#EA9C00"/>
<path d="M823.748 56.1726L820.475 53.5402C820.413 54.9382 819.915 56.6197 818.763 58.567L820.903 60.4138L819.523 62.4223L817.409 60.5503C814.443 64.2421 811.121 65.1509 808.507 63.0913C807.901 67.1607 806.881 72.0559 805.817 76.9528L803.995 74.9981C804.917 70.6257 805.755 66.558 806.519 61.7146L808.153 59.622L809.245 60.4926C811.378 62.2645 813.726 61.6086 815.734 59.1347L811.194 55.5883L812.542 53.7427L817.041 57.1536C818.357 54.6372 818.098 52.6721 816.347 51.411L814.911 50.4213L816.698 47.8481L825.155 54.0234L823.748 56.1726Z" fill="#FFCC00"/>
<path d="M834.604 169.041C830.353 185.241 817.852 194.118 806.684 188.866C795.515 183.615 789.906 166.226 794.157 150.027C798.409 133.826 810.909 124.95 822.078 130.202C833.246 135.452 838.855 152.841 834.604 169.041Z" fill="#F0AA00"/>
<path d="M818.158 128.359L822.608 130.451L807.214 189.116L802.764 187.024L818.158 128.359Z" fill="#F0AA00"/>
<path d="M808.343 188.473C820.235 189.295 830.828 176.171 832.002 159.162C833.177 142.153 824.488 127.698 812.595 126.877C800.703 126.056 790.11 139.179 788.936 156.189C787.761 173.198 796.45 187.652 808.343 188.473Z" fill="#FFCC00"/>
<path d="M807.853 164.924C813.547 162.397 818.245 158.111 820.988 151.375C822.88 146.725 825.613 140.944 826.048 135.212C823.901 132.19 821.244 129.81 818.157 128.359C806.988 123.108 794.488 131.983 790.237 148.184C788.499 154.805 788.411 161.624 789.674 167.733C795.898 168.401 802.098 167.479 807.853 164.924Z" fill="#FCDC59"/>
<path d="M825.523 164.161C822.256 176.611 812.775 183.492 804.344 179.529C795.914 175.566 791.729 162.26 794.996 149.81C798.263 137.359 807.745 130.479 816.176 134.442C824.605 138.406 828.79 151.71 825.523 164.161Z" fill="#DA8100"/>
<path d="M826.119 165.053C822.931 177.203 813.727 183.941 805.563 180.102C797.398 176.264 793.365 163.303 796.553 151.153C799.741 139.003 808.944 132.265 817.108 136.103C825.273 139.941 829.307 152.902 826.119 165.053Z" fill="#F0AA00"/>
<path d="M819.096 147.28L814.907 146.179C815.365 147.419 815.493 149.087 815.083 151.252L817.807 152.194L817.179 154.586L814.498 153.555C813.017 158.091 810.265 160.042 807.092 158.73C808.069 163.053 808.922 168.618 809.681 174.512L807.445 172.84C806.685 167.628 805.916 163.02 804.731 157.886L805.41 155.436L806.771 155.983C809.435 157.1 811.39 155.756 812.38 152.782L806.665 150.886L807.22 148.873L812.9 150.54C813.236 147.86 812.231 146.241 810.009 145.732L808.19 145.344L808.918 142.685L819.731 144.853L819.096 147.28Z" fill="#EA9C00"/>
<path d="M818.902 146.569L814.703 145.517C815.164 146.743 815.295 148.398 814.886 150.554L817.617 151.463L816.991 153.845L814.303 152.846C812.825 157.366 810.071 159.328 806.891 158.053C807.876 162.337 808.738 167.857 809.505 173.706L807.264 172.063C806.495 166.893 805.719 162.323 804.525 157.237L805.201 154.799L806.566 155.33C809.236 156.415 811.193 155.061 812.18 152.1L806.452 150.272L807.005 148.269L812.697 149.869C813.031 147.205 812.022 145.608 809.794 145.125L807.971 144.757L808.697 142.111L819.534 144.154L818.902 146.569Z" fill="#FFCC00"/>
<path d="M767.202 55.6849L771.148 57.11L761.357 89.6911L757.41 88.2658L767.202 55.6849Z" fill="#F0AA00"/>
<path d="M773.992 76.1947C771.289 85.1913 765.631 91.2345 761.356 89.691C757.08 88.1475 756.38 79.8096 759.083 70.813C761.787 61.8154 766.872 55.5665 771.147 57.11C775.422 58.6525 776.697 67.1973 773.992 76.1947Z" fill="#F0AA00"/>
<path d="M770.325 74.8708C767.622 83.8674 761.967 89.9124 757.696 88.3697C753.425 86.8281 752.155 78.285 754.859 69.2877C757.563 60.2901 763.217 54.2471 767.487 55.7886C771.759 57.3303 773.028 65.8733 770.325 74.8708Z" fill="#FFCC00"/>
<path d="M758.204 79.1284C759.323 77.8176 760.529 76.5004 761.434 75.0267C764.667 69.7691 765.172 62.8647 762.427 56.9404C759.455 59.0976 756.568 63.6015 754.86 69.2875C753.223 74.7318 753.044 80.0074 754.103 83.6683C755.519 82.1986 756.88 80.6773 758.204 79.1284Z" fill="#FCDC59"/>
<path d="M767.285 73.4381C765.206 80.3529 762.115 85.4323 759.246 84.397C756.202 83.2978 754.818 76.6032 756.895 69.6882C758.974 62.7735 762.984 58.008 765.852 59.0432C766.555 59.2968 767.321 59.5738 768.223 61.1652C769.646 63.6778 768.853 68.2199 767.285 73.4381Z" fill="#DA8100"/>
<path d="M768.38 74.168C766.352 80.9164 762.383 85.5461 759.514 84.5108C756.645 83.4755 755.963 77.1657 757.991 70.4173C760.019 63.6689 763.989 59.0393 766.858 60.0746C769.726 61.1107 770.407 67.4205 768.38 74.168Z" fill="#F0AA00"/>
<path d="M767.136 66.1548L765.4 66.2355C765.526 66.8033 765.489 67.6416 765.195 68.8079L766.309 68.9186L765.91 70.2436L764.82 70.0572C763.95 72.512 762.687 73.7253 761.421 73.325C761.615 75.3294 761.7 77.9637 761.735 80.7908L760.887 80.0107C760.817 77.5567 760.718 75.414 760.475 73.0781L760.882 71.89L761.426 72.0431C762.49 72.359 763.385 71.5141 763.962 69.9242L761.644 69.6262L761.984 68.6013L764.302 68.7344C764.592 67.3359 764.253 66.6604 763.335 66.7165L762.585 66.7716L763.042 65.3662L767.546 64.7707L767.136 66.1548Z" fill="#EA9C00"/>
<path d="M767.092 65.8118L765.35 65.9259C765.478 66.4858 765.442 67.3163 765.149 68.4767L766.268 68.5649L765.87 69.8851L764.776 69.7204C763.908 72.1663 762.643 73.3904 761.371 73.0156C761.57 74.9955 761.661 77.6023 761.701 80.4009L760.849 79.6404C760.774 77.212 760.671 75.0938 760.423 72.7864L760.827 71.604L761.373 71.7463C762.441 72.0406 763.338 71.1878 763.914 69.6038L761.587 69.3519L761.926 68.332L764.253 68.4189C764.541 67.0293 764.2 66.3675 763.278 66.4412L762.525 66.5111L762.981 65.1125L767.501 64.4307L767.092 65.8118Z" fill="#FFCC00"/>
<path d="M743.474 -7.2884L750.024 -4.9235L733.772 49.1567L727.222 46.7928L743.474 -7.2884Z" fill="#F0AA00"/>
<path d="M754.747 26.754C750.259 41.6875 740.867 51.7177 733.771 49.1566C726.675 46.5953 725.512 32.7555 730 17.8219C734.488 2.88739 742.927 -7.48593 750.023 -4.92361C757.12 -2.36227 759.235 11.8194 754.747 26.754Z" fill="#F0AA00"/>
<path d="M748.659 24.5568C744.171 39.4904 734.786 49.5229 727.697 46.9641C720.608 44.4053 718.5 30.2239 722.988 15.2904C727.476 0.355869 736.861 -9.6757 743.949 -7.11707C751.039 -4.55805 753.147 9.62231 748.659 24.5568Z" fill="#FFCC00"/>
<path d="M728.538 31.6238C730.397 29.4488 732.397 27.2618 733.901 24.8158C739.267 16.0889 740.105 4.62891 735.55 -5.20519C730.617 -1.62353 725.825 5.85123 722.988 15.2895C720.272 24.3263 719.976 33.0829 721.733 39.1597C724.082 36.7209 726.341 34.1953 728.538 31.6238Z" fill="#FCDC59"/>
<path d="M743.613 22.179C740.164 33.6566 735.032 42.088 730.271 40.369C725.216 38.5438 722.919 27.4322 726.369 15.9547C729.818 4.4771 736.475 -3.4331 741.236 -1.7143C742.404 -1.29254 743.675 -0.834172 745.172 1.80893C747.533 5.97908 746.215 13.5182 743.613 22.179Z" fill="#DA8100"/>
<path d="M745.43 23.3908C742.063 34.5912 735.474 42.2773 730.713 40.5585C725.952 38.8395 724.82 28.3662 728.185 17.1656C731.551 5.96525 738.141 -1.72088 742.902 -0.00188268C747.663 1.71692 748.795 12.1903 745.43 23.3908Z" fill="#F0AA00"/>
<path d="M743.365 10.0903L740.483 10.2243C740.694 11.1671 740.632 12.558 740.143 14.4943L741.994 14.6775L741.332 16.8764L739.524 16.5671C738.081 20.642 735.984 22.6562 733.881 21.9915C734.204 25.3182 734.345 29.6914 734.402 34.3834L732.994 33.0884C732.878 29.0146 732.714 25.4591 732.311 21.5809L732.985 19.6085L733.887 19.8632C735.653 20.3876 737.14 18.9846 738.097 16.3463L734.25 15.8513L734.814 14.1501L738.663 14.3712C739.144 12.0504 738.581 10.9286 737.058 11.0222L735.811 11.1139L736.57 8.78098L744.046 7.79325L743.365 10.0903Z" fill="#EA9C00"/>
<path d="M743.292 9.52071L740.401 9.71085C740.614 10.6399 740.555 12.0181 740.068 13.9446L741.926 14.0905L741.265 16.2815L739.45 16.0083C738.009 20.0694 735.909 22.0994 733.797 21.4779C734.128 24.7643 734.278 29.0914 734.345 33.7375L732.931 32.4759C732.807 28.4443 732.635 24.929 732.223 21.0989L732.894 19.1363L733.8 19.3723C735.573 19.8604 737.062 18.4447 738.017 15.816L734.155 15.3986L734.718 13.7061L738.582 13.8507C739.06 11.5436 738.493 10.4455 736.963 10.5685L735.713 10.6838L736.469 8.36177L743.973 7.23075L743.292 9.52071Z" fill="#FFCC00"/>
<path d="M784.507 204.491L791.251 206.925L774.516 262.613L767.772 260.178L784.507 204.491Z" fill="#F0AA00"/>
<path d="M796.113 239.545C791.492 254.922 781.822 265.251 774.516 262.613C767.209 259.975 766.011 245.725 770.633 230.347C775.254 214.969 783.944 204.288 791.251 206.925C798.557 209.562 800.735 224.166 796.113 239.545Z" fill="#F0AA00"/>
<path d="M789.845 237.282C785.223 252.659 775.56 262.99 768.261 260.354C760.962 257.72 758.791 243.118 763.412 227.74C768.033 212.362 777.697 202.032 784.996 204.668C792.295 207.302 794.466 221.904 789.845 237.282Z" fill="#FFCC00"/>
<path d="M769.127 244.558C771.041 242.319 773.101 240.067 774.65 237.549C780.175 228.563 781.038 216.763 776.346 206.636C771.268 210.324 766.332 218.021 763.412 227.74C760.616 237.046 760.31 246.063 762.12 252.321C764.538 249.808 766.865 247.207 769.127 244.558Z" fill="#FCDC59"/>
<path d="M784.649 234.833C781.097 246.652 775.814 255.334 770.91 253.563C765.706 251.685 763.34 240.242 766.892 228.423C770.443 216.605 777.299 208.459 782.201 210.229C783.404 210.663 784.713 211.136 786.255 213.857C788.686 218.153 787.329 225.915 784.649 234.833Z" fill="#DA8100"/>
<path d="M786.519 236.081C783.053 247.615 776.268 255.529 771.366 253.759C766.462 251.989 765.297 241.205 768.763 229.671C772.229 218.138 779.014 210.223 783.917 211.993C788.819 213.763 789.985 224.548 786.519 236.081Z" fill="#F0AA00"/>
<path d="M784.394 222.384L781.427 222.522C781.644 223.493 781.581 224.925 781.078 226.919L782.983 227.107L782.301 229.372L780.44 229.053C778.954 233.249 776.794 235.322 774.629 234.638C774.961 238.064 775.107 242.567 775.166 247.398L773.717 246.065C773.597 241.871 773.429 238.209 773.013 234.217L773.706 232.185L774.635 232.447C776.454 232.986 777.985 231.542 778.97 228.826L775.008 228.316L775.59 226.565L779.554 226.793C780.049 224.403 779.47 223.248 777.9 223.344L776.617 223.439L777.399 221.037L785.096 220.02L784.394 222.384Z" fill="#EA9C00"/>
<path d="M784.319 221.799L781.341 221.995C781.561 222.952 781.499 224.371 780.999 226.354L782.912 226.504L782.231 228.761L780.363 228.479C778.879 232.661 776.716 234.752 774.541 234.112C774.882 237.496 775.037 241.952 775.105 246.735L773.649 245.436C773.521 241.284 773.345 237.664 772.919 233.721L773.611 231.7L774.543 231.944C776.369 232.446 777.903 230.988 778.886 228.282L774.909 227.852L775.489 226.109L779.468 226.258C779.961 223.882 779.376 222.751 777.801 222.877L776.513 222.997L777.292 220.606L785.019 219.441L784.319 221.799Z" fill="#FFCC00"/>
<path d="M856.5 95.4443L851.907 97.734L861.631 133.483L866.223 131.193L856.5 95.4443Z" fill="#F0AA00"/>
<path d="M847.759 120.101C850.444 129.973 856.655 135.964 861.63 133.484C866.606 131.003 867.796 121.322 865.111 111.45C862.425 101.578 856.883 95.2535 851.907 97.7343C846.931 100.215 845.073 110.229 847.759 120.101Z" fill="#F0AA00"/>
<path d="M852.028 117.972C854.713 127.844 860.92 133.838 865.89 131.36C870.86 128.882 872.713 118.869 870.028 108.998C867.342 99.1259 861.137 93.1328 856.166 95.6105C851.195 98.0884 849.343 108.1 852.028 117.972Z" fill="#FFCC00"/>
<path d="M865.736 120.842C864.512 119.525 863.191 118.214 862.22 116.674C858.754 111.181 858.495 103.344 861.918 96.0905C865.228 98.0719 868.331 102.758 870.028 108.997C871.653 114.97 871.613 120.993 870.229 125.369C868.674 123.918 867.183 122.399 865.736 120.842Z" fill="#FCDC59"/>
<path d="M855.582 115.823C857.645 123.411 860.957 128.724 864.296 127.059C867.84 125.292 869.737 117.382 867.674 109.794C865.611 102.207 861.23 97.4068 857.892 99.0716C857.072 99.48 856.181 99.9245 855.073 101.901C853.323 105.02 854.024 110.099 855.582 115.823Z" fill="#DA8100"/>
<path d="M854.292 116.843C856.306 124.247 860.645 128.899 863.984 127.235C867.324 125.57 868.398 118.218 866.384 110.814C864.37 103.41 860.03 98.758 856.691 100.423C853.353 102.088 852.279 109.439 854.292 116.843Z" fill="#F0AA00"/>
<path d="M855.301 107.878L860.118 105.264L860.731 106.675L859.912 107.146C858.915 107.695 858.585 108.642 858.964 110.023L861.526 108.689L861.971 109.912L859.386 111.212C860.076 112.875 861.113 113.748 862.327 113.184L862.949 112.879L863.461 114.597C863.208 117.97 863.072 120.928 862.919 124.197L861.882 124.48C862.016 120.985 862.151 117.611 862.362 114.946C860.9 115.447 859.447 114.1 858.43 111.643L857.227 112.148L856.764 111.018L857.983 110.484C857.621 109.433 857.546 108.609 857.655 107.96L855.792 108.862L855.301 107.878Z" fill="#EA9C00"/>
<path d="M855.334 107.56L860.16 104.899L860.775 106.298L859.955 106.776C858.956 107.335 858.625 108.283 859.006 109.656L861.573 108.296L862.019 109.51L859.428 110.836C860.121 112.484 861.16 113.343 862.377 112.767L863 112.456L863.514 114.163C863.262 117.528 863.127 120.479 862.977 123.74L861.938 124.034C862.07 120.548 862.203 117.183 862.413 114.523C860.948 115.04 859.491 113.713 858.471 111.276L857.265 111.794L856.8 110.673L858.022 110.127C857.658 109.083 857.582 108.263 857.691 107.615L855.824 108.536L855.334 107.56Z" fill="#FFCC00"/>
<path d="M915.129 256.216L910.537 258.505L920.26 294.254L924.854 291.965L915.129 256.216Z" fill="#F0AA00"/>
<path d="M906.389 280.872C909.073 290.744 915.285 296.735 920.26 294.255C925.236 291.774 926.425 282.093 923.741 272.221C921.055 262.349 915.513 256.024 910.537 258.505C905.561 260.986 903.704 271 906.389 280.872Z" fill="#F0AA00"/>
<path d="M910.657 278.743C913.342 288.615 919.549 294.608 924.519 292.131C929.49 289.653 931.342 279.64 928.657 269.769C925.971 259.897 919.766 253.904 914.795 256.381C909.826 258.86 907.973 268.871 910.657 278.743Z" fill="#FFCC00"/>
<path d="M909.4 20.3377L904.807 22.6276L914.531 58.3765L919.124 56.0868L909.4 20.3377Z" fill="#F0AA00"/>
<path d="M900.66 44.994C903.344 54.866 909.556 60.8573 914.531 58.3772C919.507 55.8964 920.696 46.2148 918.012 36.3428C915.326 26.4706 909.784 20.1465 904.808 22.6273C899.832 25.1082 897.975 35.122 900.66 44.994Z" fill="#F0AA00"/>
<path d="M904.928 42.865C907.613 52.7371 913.82 58.7305 918.79 56.2526C923.761 53.7747 925.613 43.7621 922.928 33.8901C920.243 24.0181 914.037 18.0248 909.066 20.5025C904.096 22.9816 902.243 32.993 904.928 42.865Z" fill="#FFCC00"/>
<path d="M918.637 45.7349C917.414 44.4179 916.092 43.1071 915.121 41.5673C911.656 36.073 911.396 28.2367 914.82 20.9835C918.129 22.9649 921.232 27.6509 922.929 33.8901C924.554 39.8645 924.514 45.8857 923.13 50.2625C921.575 48.8113 920.083 47.2921 918.637 45.7349Z" fill="#FCDC59"/>
<path d="M908.482 40.7165C910.545 48.3039 913.857 53.6166 917.196 51.952C920.741 50.1849 922.638 42.2749 920.575 34.6874C918.511 27.1 914.13 22.2998 910.792 23.9636C909.973 24.372 909.082 24.8165 907.974 26.7926C906.225 29.9132 906.925 34.9917 908.482 40.7165Z" fill="#DA8100"/>
<path d="M907.194 41.7366C909.207 49.1402 913.547 53.7926 916.886 52.128C920.225 50.4634 921.3 43.1111 919.286 35.7076C917.273 28.3031 912.932 23.6514 909.594 25.3162C906.254 26.9806 905.179 34.3329 907.194 41.7366Z" fill="#F0AA00"/>
<path d="M908.202 32.7714L913.019 30.1575L913.632 31.5682L912.813 32.039C911.816 32.5881 911.486 33.5352 911.865 34.9166L914.427 33.5822L914.872 34.8051L912.286 36.1053C912.976 37.7675 914.012 38.6405 915.227 38.077L915.849 37.7716L916.361 39.4897C916.108 42.8626 915.972 45.8205 915.82 49.0901L914.783 49.3734C914.917 45.8783 915.052 42.5045 915.264 39.8397C913.802 40.3406 912.349 38.9931 911.332 36.5365L910.129 37.0412L909.666 35.9114L910.885 35.3773C910.523 34.3263 910.448 33.5026 910.557 32.8535L908.694 33.7549L908.202 32.7714Z" fill="#EA9C00"/>
<path d="M908.234 32.4528L913.06 29.7918L913.675 31.1907L912.855 31.6694C911.856 32.2282 911.525 33.1764 911.906 34.5489L914.473 33.1888L914.919 34.4029L912.327 35.7296C913.02 37.378 914.06 38.2373 915.278 37.6612L915.901 37.3499L916.415 39.0572C916.163 42.4223 916.029 45.3733 915.879 48.6341L914.839 48.9282C914.972 45.442 915.105 42.078 915.316 39.4181C913.85 39.9347 912.394 38.6077 911.373 36.1708L910.168 36.6882L909.703 35.5673L910.924 35.0214C910.561 33.9773 910.485 33.1575 910.594 32.5094L908.727 33.4304L908.234 32.4528Z" fill="#FFCC00"/>
<path d="M836.528 246.087L831.934 248.377L841.659 284.127L846.251 281.836L836.528 246.087Z" fill="#F0AA00"/>
<path d="M827.788 270.744C830.472 280.616 836.684 286.607 841.659 284.127C846.635 281.646 847.824 271.964 845.139 262.092C842.454 252.22 836.911 245.896 831.935 248.377C826.959 250.858 825.102 260.871 827.788 270.744Z" fill="#F0AA00"/>
<path d="M832.056 268.616C834.74 278.488 840.947 284.481 845.918 282.003C850.888 279.525 852.74 269.513 850.055 259.642C847.37 249.769 841.165 243.776 836.193 246.254C831.223 248.732 829.371 258.743 832.056 268.616Z" fill="#FFCC00"/>
<path d="M845.765 271.484C844.541 270.167 843.219 268.857 842.249 267.317C838.784 261.823 838.524 253.986 841.947 246.733C845.257 248.714 848.36 253.4 850.057 259.64C851.681 265.613 851.642 271.635 850.258 276.011C848.701 274.562 847.211 273.042 845.765 271.484Z" fill="#FCDC59"/>
<path d="M835.61 266.467C837.673 274.055 840.985 279.368 844.324 277.703C847.868 275.936 849.765 268.026 847.702 260.438C845.639 252.851 841.258 248.051 837.92 249.716C837.1 250.124 836.209 250.568 835.101 252.545C833.352 255.663 834.053 260.742 835.61 266.467Z" fill="#DA8100"/>
<path d="M834.32 267.486C836.334 274.891 840.673 279.542 844.012 277.878C847.351 276.214 848.426 268.862 846.411 261.458C844.398 254.053 840.057 249.402 836.719 251.066C833.381 252.73 832.306 260.083 834.32 267.486Z" fill="#F0AA00"/>
<path d="M835.329 258.521L840.146 255.907L840.758 257.318L839.94 257.789C838.943 258.338 838.612 259.285 838.992 260.666L841.554 259.332L841.999 260.555L839.412 261.855C840.103 263.517 841.139 264.39 842.354 263.826L842.976 263.521L843.488 265.239C843.235 268.611 843.099 271.57 842.946 274.839L841.909 275.123C842.043 271.628 842.178 268.254 842.389 265.589C840.927 266.09 839.474 264.742 838.457 262.286L837.254 262.79L836.791 261.661L838.01 261.126C837.648 260.075 837.573 259.252 837.682 258.603L835.819 259.504L835.329 258.521Z" fill="#EA9C00"/>
<path d="M835.362 258.202L840.188 255.541L840.803 256.94L839.983 257.419C838.984 257.978 838.653 258.926 839.034 260.298L841.6 258.938L842.047 260.152L839.455 261.479C840.148 263.128 841.188 263.987 842.406 263.411L843.029 263.099L843.542 264.807C843.29 268.172 843.156 271.123 843.006 274.384L841.966 274.678C842.099 271.192 842.232 267.827 842.441 265.168C840.976 265.685 839.52 264.358 838.499 261.921L837.293 262.438L836.829 261.317L838.05 260.771C837.687 259.726 837.61 258.907 837.72 258.259L835.853 259.18L835.362 258.202Z" fill="#FFCC00"/>
<path d="M872.694 41.4451L868.102 43.735L877.825 79.4849L882.419 77.1942L872.694 41.4451Z" fill="#F0AA00"/>
<path d="M863.954 66.1014C866.639 75.9735 872.85 81.9647 877.825 79.4847C882.801 77.0038 883.991 67.3223 881.306 57.4502C878.62 47.578 873.078 41.2539 868.102 43.7348C863.126 46.2156 861.269 56.2294 863.954 66.1014Z" fill="#F0AA00"/>
<path d="M868.223 63.9736C870.908 73.8456 877.115 79.839 882.086 77.3612C887.056 74.8833 888.908 64.8707 886.223 54.9996C883.538 45.1274 877.333 39.1344 872.361 41.612C867.391 44.0899 865.538 54.1004 868.223 63.9736Z" fill="#FFCC00"/>
<path d="M881.932 66.8423C880.708 65.5252 879.386 64.2145 878.416 62.6748C874.951 57.1804 874.691 49.3441 878.114 42.091C881.424 44.0723 884.527 48.7583 886.224 54.9975C887.848 60.9709 887.809 66.9931 886.425 71.369C884.869 69.9197 883.378 68.3996 881.932 66.8423Z" fill="#FCDC59"/>
<path d="M871.776 61.8249C873.839 69.4123 877.151 74.725 880.49 73.0604C884.035 71.2933 885.932 63.3833 883.869 55.7958C881.805 48.2083 877.424 43.4082 874.086 45.073C873.267 45.4814 872.376 45.9258 871.267 47.9019C869.519 51.0205 870.219 56.099 871.776 61.8249Z" fill="#DA8100"/>
<path d="M870.488 62.8441C872.501 70.2486 876.841 74.9001 880.18 73.2365C883.519 71.5719 884.594 64.2195 882.579 56.8158C880.566 49.4113 876.225 44.7596 872.887 46.4244C869.548 48.089 868.473 55.4404 870.488 62.8441Z" fill="#F0AA00"/>
<path d="M871.496 53.8788L876.313 51.2649L876.926 52.6756L876.108 53.1464C875.111 53.6955 874.78 54.6426 875.159 56.024L877.722 54.6896L878.166 55.9126L875.581 57.2129C876.271 58.8751 877.308 59.7481 878.522 59.1846L879.145 58.8792L879.657 60.5973C879.403 63.9703 879.267 66.9281 879.115 70.1975L878.077 70.4808C878.212 66.9858 878.346 63.6119 878.557 60.9469C877.095 61.4478 875.642 60.1003 874.626 57.6437L873.422 58.1484L872.96 57.0187L874.179 56.4845C873.816 55.4336 873.741 54.6098 873.85 53.9608L871.987 54.8622L871.496 53.8788Z" fill="#EA9C00"/>
<path d="M871.528 53.5602L876.354 50.8992L876.969 52.2981L876.149 52.7768C875.151 53.3357 874.82 54.2838 875.2 55.6563L877.767 54.2962L878.213 55.5103L875.622 56.837C876.315 58.4854 877.354 59.3447 878.572 58.7686L879.196 58.4573L879.709 60.1644C879.457 63.5296 879.322 66.4806 879.172 69.7413L878.133 70.0354C878.266 66.5492 878.398 63.1842 878.608 60.5251C877.143 61.0417 875.686 59.7148 874.666 57.2778L873.46 57.7952L872.995 56.6743L874.217 56.1284C873.853 55.0843 873.777 54.2645 873.886 53.6164L872.019 54.5375L871.528 53.5602Z" fill="#FFCC00"/>
<path d="M731.667 73.7107L729.015 75.0327L734.629 95.6724L737.281 94.3503L731.667 73.7107Z" fill="#F0AA00"/>
<path d="M726.62 87.946C728.171 93.6461 731.756 97.1048 734.629 95.6731C737.502 94.2405 738.189 88.6514 736.639 82.9515C735.088 77.2513 731.888 73.6009 729.015 75.0325C726.143 76.4644 725.071 82.246 726.62 87.946Z" fill="#F0AA00"/>
<path d="M729.086 86.717C730.636 92.416 734.219 95.8774 737.089 94.4461C739.959 93.0149 741.028 87.2346 739.478 81.5357C737.927 75.8355 734.344 72.3752 731.475 73.8065C728.605 75.2368 727.535 81.0169 729.086 86.717Z" fill="#FFCC00"/>
<path d="M737 88.374C736.294 87.6135 735.53 86.8571 734.969 85.9681C732.969 82.7965 732.819 78.2719 734.796 74.0843C736.706 75.2278 738.499 77.9337 739.478 81.5363C740.416 84.9852 740.394 88.4625 739.594 90.9891C738.696 90.1502 737.835 89.2729 737 88.374Z" fill="#FCDC59"/>
<path d="M731.138 85.4776C732.329 89.8583 734.241 92.9259 736.169 91.9648C738.216 90.9443 739.311 86.3775 738.12 81.9968C736.929 77.6162 734.399 74.8447 732.472 75.806C731.999 76.0417 731.484 76.2987 730.845 77.4392C729.834 79.2398 730.238 82.1717 731.138 85.4776Z" fill="#DA8100"/>
<path d="M730.393 86.0654C731.556 90.3407 734.062 93.026 735.989 92.0647C737.917 91.1036 738.537 86.8588 737.374 82.5845C736.211 78.3092 733.706 75.6239 731.778 76.585C729.851 77.5463 729.23 81.7901 730.393 86.0654Z" fill="#F0AA00"/>
<path d="M730.976 80.8892L733.757 79.3805L734.11 80.1944L733.638 80.4659C733.063 80.7835 732.871 81.3299 733.09 82.1277L734.57 81.3571L734.826 82.0633L733.333 82.814C733.732 83.7732 734.331 84.2785 735.031 83.9528L735.391 83.7765L735.686 84.7685C735.54 86.7156 735.461 88.4241 735.373 90.3114L734.775 90.4747C734.852 88.4571 734.93 86.5089 735.053 84.9698C734.209 85.2593 733.37 84.4811 732.783 83.0622L732.089 83.3534L731.822 82.7011L732.526 82.3924C732.318 81.7852 732.274 81.31 732.337 80.9351L731.261 81.4555L730.976 80.8892Z" fill="#EA9C00"/>
<path d="M730.994 80.7053L733.78 79.1691L734.135 79.9761L733.663 80.2526C733.086 80.575 732.894 81.1224 733.114 81.9153L734.597 81.13L734.854 81.8313L733.358 82.5967C733.758 83.5481 734.358 84.0444 735.061 83.7119L735.421 83.5327L735.718 84.5178C735.572 86.461 735.494 88.1646 735.408 90.047L734.808 90.2161C734.885 88.2034 734.961 86.2611 735.083 84.725C734.237 85.0233 733.397 84.2569 732.808 82.8498L732.112 83.1479L731.844 82.5015L732.549 82.1859C732.339 81.5834 732.296 81.1104 732.359 80.7355L731.281 81.2667L730.994 80.7053Z" fill="#FFCC00"/>
<path d="M961.573 167.915L956.98 170.204L966.704 205.953L971.296 203.663L961.573 167.915Z" fill="#F0AA00"/>
<path d="M952.832 192.571C955.517 202.443 961.729 208.435 966.703 205.954C971.68 203.474 972.869 193.792 970.184 183.92C967.499 174.048 961.956 167.724 956.98 170.205C952.004 172.685 950.147 182.698 952.832 192.571Z" fill="#F0AA00"/>
<path d="M957.101 190.442C959.786 200.314 965.992 206.308 970.963 203.83C975.934 201.352 977.786 191.339 975.101 181.468C972.415 171.596 966.21 165.603 961.239 168.081C956.268 170.559 954.416 180.57 957.101 190.442Z" fill="#FFCC00"/>
<path d="M970.809 193.312C969.585 191.995 968.264 190.684 967.293 189.144C963.828 183.651 963.569 175.814 966.992 168.561C970.3 170.542 973.404 175.228 975.101 181.467C976.726 187.441 976.686 193.463 975.303 197.839C973.747 196.389 972.256 194.869 970.809 193.312Z" fill="#FCDC59"/>
<path d="M960.655 188.294C962.718 195.881 966.03 201.194 969.369 199.529C972.914 197.762 974.811 189.852 972.747 182.265C970.684 174.677 966.303 169.877 962.965 171.542C962.145 171.95 961.255 172.395 960.146 174.371C958.397 177.49 959.098 182.569 960.655 188.294Z" fill="#DA8100"/>
<path d="M959.365 189.314C961.379 196.718 965.718 201.37 969.058 199.705C972.397 198.04 973.471 190.689 971.457 183.284C969.443 175.881 965.104 171.228 961.765 172.893C958.426 174.558 957.352 181.909 959.365 189.314Z" fill="#F0AA00"/>
<path d="M960.374 180.349L965.191 177.735L965.804 179.145L964.985 179.616C963.989 180.165 963.658 181.112 964.037 182.494L966.599 181.159L967.044 182.382L964.458 183.682C965.148 185.345 966.185 186.218 967.4 185.654L968.022 185.349L968.535 187.067C968.281 190.44 968.145 193.398 967.993 196.667L966.955 196.951C967.09 193.456 967.224 190.082 967.435 187.417C965.973 187.918 964.52 186.57 963.504 184.113L962.3 184.618L961.837 183.488L963.057 182.954C962.694 181.903 962.619 181.08 962.728 180.43L960.865 181.333L960.374 180.349Z" fill="#EA9C00"/>
<path d="M960.407 180.03L965.233 177.369L965.848 178.768L965.028 179.247C964.029 179.805 963.699 180.754 964.079 182.126L966.647 180.766L967.093 181.98L964.502 183.306C965.195 184.954 966.234 185.814 967.451 185.237L968.075 184.926L968.589 186.633C968.337 189.998 968.202 192.949 968.051 196.21L967.012 196.504C967.145 193.018 967.277 189.654 967.487 186.994C966.022 187.51 964.565 186.184 963.545 183.747L962.339 184.264L961.874 183.143L963.096 182.596C962.732 181.552 962.656 180.732 962.766 180.084L960.898 181.005L960.407 180.03Z" fill="#FFCC00"/>
<path d="M731.568 221.831L726.975 224.121L736.699 259.87L741.291 257.58L731.568 221.831Z" fill="#F0AA00"/>
<path d="M722.828 246.487C725.512 256.359 731.724 262.35 736.699 259.87C741.675 257.39 742.864 247.708 740.18 237.836C737.495 227.964 731.952 221.64 726.976 224.121C722 226.6 720.143 236.614 722.828 246.487Z" fill="#F0AA00"/>
<path d="M727.096 244.358C729.781 254.23 735.987 260.223 740.958 257.746C745.929 255.268 747.781 245.255 745.096 235.383C742.41 225.511 736.205 219.518 731.234 221.996C726.264 224.475 724.411 234.486 727.096 244.358Z" fill="#FFCC00"/>
<path d="M740.805 247.228C739.581 245.911 738.26 244.6 737.288 243.06C733.823 237.566 733.564 229.73 736.987 222.477C740.295 224.458 743.399 229.144 745.096 235.383C746.721 241.357 746.681 247.379 745.297 251.756C743.743 250.305 742.252 248.785 740.805 247.228Z" fill="#FCDC59"/>
<path d="M730.65 242.21C732.713 249.797 736.025 255.11 739.364 253.445C742.909 251.678 744.806 243.768 742.743 236.181C740.679 228.593 736.298 223.793 732.96 225.458C732.141 225.866 731.25 226.311 730.141 228.287C728.393 231.406 729.093 236.485 730.65 242.21Z" fill="#DA8100"/>
<path d="M729.36 243.229C731.374 250.633 735.714 255.285 739.053 253.621C742.392 251.956 743.466 244.605 741.452 237.2C739.438 229.795 735.099 225.144 731.76 226.809C728.422 228.473 727.347 235.825 729.36 243.229Z" fill="#F0AA00"/>
<path d="M730.371 234.265L735.187 231.651L735.8 233.061L734.982 233.532C733.985 234.081 733.654 235.028 734.033 236.41L736.595 235.075L737.039 236.298L734.453 237.598C735.143 239.26 736.18 240.133 737.395 239.57L738.017 239.265L738.529 240.983C738.275 244.356 738.139 247.313 737.987 250.583L736.949 250.866C737.084 247.371 737.218 243.997 737.429 241.332C735.967 241.833 734.514 240.486 733.498 238.029L732.295 238.534L731.832 237.404L733.051 236.87C732.688 235.819 732.614 234.995 732.723 234.346L730.859 235.248L730.371 234.265Z" fill="#EA9C00"/>
<path d="M730.402 233.945L735.228 231.284L735.843 232.683L735.023 233.162C734.025 233.72 733.694 234.669 734.075 236.041L736.641 234.681L737.087 235.895L734.497 237.222C735.19 238.87 736.229 239.73 737.446 239.153L738.07 238.842L738.584 240.549C738.332 243.915 738.197 246.866 738.047 250.126L737.008 250.42C737.141 246.934 737.273 243.569 737.484 240.91C736.019 241.427 734.562 240.1 733.542 237.663L732.336 238.18L731.871 237.06L733.093 236.514C732.729 235.469 732.654 234.65 732.762 234.002L730.895 234.922L730.402 233.945Z" fill="#FFCC00"/>
<path d="M773.055 101.818L769.774 103.453L776.719 128.984L779.999 127.348L773.055 101.818Z" fill="#F0AA00"/>
<path d="M766.813 119.427C768.73 126.476 773.166 130.756 776.719 128.985C780.272 127.213 781.122 120.299 779.204 113.248C777.287 106.198 773.328 101.682 769.775 103.453C766.222 105.225 764.895 112.376 766.813 119.427Z" fill="#F0AA00"/>
<path d="M769.861 117.906C771.779 124.956 776.212 129.237 779.761 127.467C783.311 125.697 784.634 118.547 782.716 111.497C780.798 104.447 776.367 100.166 772.817 101.936C769.266 103.707 767.944 110.856 769.861 117.906Z" fill="#FFCC00"/>
<path d="M779.652 119.955C778.778 119.014 777.834 118.079 777.14 116.979C774.665 113.055 774.48 107.459 776.925 102.279C779.288 103.694 781.505 107.04 782.717 111.496C783.877 115.763 783.849 120.063 782.86 123.189C781.749 122.153 780.684 121.068 779.652 119.955Z" fill="#FCDC59"/>
<path d="M772.399 116.372C773.873 121.791 776.238 125.585 778.622 124.396C781.153 123.134 782.508 117.485 781.034 112.067C779.56 106.649 776.432 103.22 774.048 104.409C773.463 104.701 772.826 105.018 772.035 106.43C770.788 108.657 771.288 112.283 772.399 116.372Z" fill="#DA8100"/>
<path d="M771.479 117.1C772.917 122.388 776.016 125.71 778.401 124.521C780.785 123.332 781.553 118.082 780.114 112.794C778.676 107.506 775.577 104.184 773.192 105.373C770.808 106.562 770.041 111.812 771.479 117.1Z" fill="#F0AA00"/>
<path d="M772.2 110.698L775.639 108.832L776.077 109.839L775.493 110.176C774.781 110.567 774.544 111.244 774.815 112.231L776.645 111.278L776.962 112.151L775.115 113.08C775.608 114.266 776.348 114.891 777.216 114.488L777.66 114.27L778.025 115.497C777.844 117.906 777.747 120.018 777.639 122.353L776.898 122.555C776.995 120.059 777.09 117.65 777.241 115.746C776.197 116.104 775.159 115.142 774.433 113.387L773.574 113.748L773.244 112.942L774.114 112.56C773.855 111.81 773.802 111.222 773.879 110.758L772.548 111.402L772.2 110.698Z" fill="#EA9C00"/>
<path d="M772.223 110.47L775.669 108.569L776.109 109.568L775.523 109.91C774.809 110.31 774.573 110.986 774.845 111.967L776.679 110.995L776.997 111.862L775.147 112.809C775.642 113.987 776.385 114.6 777.254 114.189L777.699 113.966L778.066 115.185C777.886 117.588 777.79 119.696 777.682 122.024L776.94 122.234C777.036 119.744 777.13 117.341 777.28 115.442C776.234 115.811 775.193 114.863 774.465 113.123L773.604 113.493L773.272 112.692L774.144 112.302C773.884 111.557 773.83 110.971 773.907 110.509L772.574 111.166L772.223 110.47Z" fill="#FFCC00"/>
<path d="M906.966 96.2035L903.686 97.839L910.63 123.37L913.91 121.735L906.966 96.2035Z" fill="#F0AA00"/>
<path d="M900.724 113.813C902.642 120.862 907.078 125.142 910.63 123.37C914.184 121.599 915.034 114.685 913.116 107.634C911.198 100.584 907.24 96.0677 903.686 97.8391C900.132 99.6116 898.806 106.763 900.724 113.813Z" fill="#F0AA00"/>
<path d="M903.773 112.293C905.691 119.343 910.123 123.624 913.672 121.854C917.223 120.084 918.545 112.934 916.628 105.884C914.71 98.8334 910.277 94.553 906.728 96.3233C903.178 98.0923 901.854 105.242 903.773 112.293Z" fill="#FFCC00"/>
<path d="M913.563 114.342C912.689 113.401 911.745 112.466 911.052 111.365C908.577 107.442 908.392 101.846 910.837 96.6653C913.2 98.0807 915.417 101.427 916.629 105.883C917.789 110.15 917.761 114.45 916.772 117.575C915.66 116.539 914.596 115.455 913.563 114.342Z" fill="#FCDC59"/>
<path d="M906.31 110.759C907.785 116.177 910.149 119.972 912.533 118.783C915.064 117.521 916.419 111.872 914.945 106.454C913.472 101.036 910.343 97.6073 907.959 98.7962C907.374 99.0875 906.737 99.4053 905.946 100.817C904.698 103.043 905.198 106.67 906.31 110.759Z" fill="#DA8100"/>
<path d="M905.39 111.486C906.829 116.774 909.927 120.096 912.312 118.907C914.696 117.718 915.464 112.468 914.025 107.18C912.586 101.892 909.488 98.5699 907.103 99.7586C904.719 100.949 903.952 106.199 905.39 111.486Z" fill="#F0AA00"/>
<path d="M906.111 105.084L909.55 103.218L909.988 104.226L909.404 104.562C908.692 104.954 908.455 105.631 908.726 106.617L910.556 105.665L910.873 106.538L909.026 107.467C909.519 108.653 910.26 109.278 911.127 108.875L911.571 108.657L911.937 109.884C911.755 112.293 911.658 114.405 911.55 116.74L910.809 116.941C910.906 114.446 911.001 112.036 911.152 110.133C910.108 110.49 909.07 109.528 908.344 107.774L907.485 108.135L907.155 107.328L908.025 106.947C907.766 106.197 907.713 105.608 907.79 105.145L906.459 105.788L906.111 105.084Z" fill="#EA9C00"/>
<path d="M906.134 104.857L909.58 102.956L910.02 103.955L909.434 104.297C908.72 104.697 908.484 105.373 908.756 106.353L910.59 105.382L910.908 106.249L909.058 107.196C909.553 108.373 910.296 108.986 911.165 108.575L911.61 108.353L911.977 109.572C911.797 111.975 911.701 114.082 911.593 116.411L910.852 116.621C910.947 114.131 911.041 111.728 911.191 109.829C910.145 110.198 909.105 109.25 908.376 107.51L907.515 107.879L907.183 107.079L908.055 106.689C907.795 105.943 907.741 105.358 907.819 104.895L906.485 105.553L906.134 104.857Z" fill="#FFCC00"/>
<path d="M671.312 225.003L668.032 226.638L674.976 252.17L678.256 250.534L671.312 225.003Z" fill="#F0AA00"/>
<path d="M665.07 242.612C666.988 249.662 671.423 253.941 674.976 252.17C678.53 250.398 679.379 243.484 677.462 236.433C675.544 229.383 671.586 224.867 668.032 226.638C664.478 228.41 663.152 235.561 665.07 242.612Z" fill="#F0AA00"/>
<path d="M668.118 241.092C670.036 248.143 674.468 252.423 678.017 250.653C681.568 248.883 682.89 241.733 680.972 234.683C679.055 227.633 674.623 223.352 671.073 225.122C667.524 226.892 666.2 234.042 668.118 241.092Z" fill="#FFCC00"/>
<path d="M677.908 243.141C677.035 242.2 676.091 241.265 675.398 240.165C672.923 236.241 672.738 230.645 675.182 225.465C677.546 226.88 679.762 230.226 680.973 234.682C682.134 238.949 682.106 243.249 681.117 246.375C680.006 245.338 678.941 244.253 677.908 243.141Z" fill="#FCDC59"/>
<path d="M670.656 239.557C672.13 244.975 674.495 248.77 676.879 247.582C679.41 246.32 680.766 240.671 679.291 235.252C677.818 229.834 674.689 226.406 672.305 227.595C671.72 227.886 671.084 228.204 670.292 229.615C669.044 231.842 669.544 235.469 670.656 239.557Z" fill="#DA8100"/>
<path d="M669.736 240.285C671.174 245.573 674.273 248.895 676.657 247.706C679.041 246.517 679.809 241.267 678.371 235.979C676.932 230.691 673.833 227.369 671.448 228.558C669.065 229.748 668.297 234.998 669.736 240.285Z" fill="#F0AA00"/>
<path d="M670.457 233.884L673.897 232.018L674.334 233.025L673.75 233.362C673.038 233.753 672.802 234.43 673.072 235.417L674.902 234.464L675.22 235.337L673.373 236.266C673.866 237.453 674.607 238.077 675.474 237.674L675.918 237.456L676.284 238.683C676.102 241.092 676.006 243.205 675.897 245.539L675.156 245.741C675.253 243.245 675.349 240.836 675.499 238.932C674.455 239.29 673.418 238.328 672.692 236.573L671.832 236.934L671.502 236.128L672.372 235.747C672.113 234.996 672.06 234.408 672.138 233.944L670.806 234.588L670.457 233.884Z" fill="#EA9C00"/>
<path d="M670.479 233.655L673.925 231.755L674.365 232.753L673.78 233.095C673.066 233.495 672.83 234.171 673.102 235.152L674.935 234.18L675.254 235.047L673.404 235.994C673.898 237.172 674.641 237.785 675.51 237.374L675.955 237.151L676.322 238.37C676.142 240.773 676.046 242.881 675.939 245.209L675.197 245.419C675.292 242.929 675.386 240.526 675.536 238.627C674.49 238.996 673.45 238.048 672.721 236.308L671.86 236.678L671.528 235.877L672.4 235.487C672.14 234.742 672.087 234.156 672.164 233.694L670.83 234.351L670.479 233.655Z" fill="#FFCC00"/>
<path d="M672.438 133.097L669.159 134.733L676.103 160.263L679.382 158.627L672.438 133.097Z" fill="#F0AA00"/>
<path d="M666.197 150.706C668.115 157.756 672.55 162.036 676.103 160.264C679.657 158.493 680.506 151.578 678.589 144.528C676.671 137.477 672.712 132.961 669.159 134.733C665.605 136.504 664.279 143.656 666.197 150.706Z" fill="#F0AA00"/>
<path d="M669.245 149.185C671.163 156.235 675.595 160.516 679.144 158.746C682.695 156.976 684.017 149.826 682.099 142.776C680.182 135.726 675.75 131.446 672.2 133.216C668.651 134.986 667.327 142.136 669.245 149.185Z" fill="#FFCC00"/>
<path d="M679.035 151.235C678.162 150.294 677.217 149.358 676.524 148.258C674.049 144.335 673.864 138.738 676.308 133.558C678.672 134.973 680.888 138.319 682.099 142.775C683.26 147.042 683.232 151.342 682.243 154.468C681.133 153.433 680.068 152.347 679.035 151.235Z" fill="#FCDC59"/>
<path d="M671.783 147.652C673.256 153.07 675.621 156.865 678.006 155.676C680.537 154.414 681.892 148.765 680.418 143.347C678.944 137.928 675.816 134.5 673.431 135.689C672.847 135.98 672.21 136.298 671.419 137.709C670.17 139.936 670.67 143.562 671.783 147.652Z" fill="#DA8100"/>
<path d="M670.863 148.379C672.3 153.667 675.4 156.989 677.784 155.8C680.168 154.612 680.936 149.361 679.498 144.073C678.06 138.786 674.96 135.464 672.575 136.652C670.192 137.841 669.424 143.091 670.863 148.379Z" fill="#F0AA00"/>
<path d="M671.582 141.977L675.022 140.111L675.46 141.119L674.876 141.455C674.163 141.846 673.927 142.524 674.198 143.51L676.028 142.557L676.345 143.43L674.499 144.359C674.991 145.546 675.732 146.171 676.6 145.767L677.044 145.55L677.409 146.776C677.228 149.185 677.131 151.298 677.022 153.632L676.282 153.834C676.378 151.338 676.474 148.929 676.625 147.026C675.581 147.383 674.543 146.421 673.817 144.666L672.958 145.027L672.627 144.221L673.498 143.84C673.239 143.089 673.186 142.501 673.263 142.037L671.932 142.681L671.582 141.977Z" fill="#EA9C00"/>
<path d="M671.605 141.749L675.052 139.849L675.491 140.848L674.906 141.19C674.192 141.588 673.956 142.265 674.228 143.246L676.061 142.274L676.38 143.142L674.53 144.088C675.025 145.266 675.768 145.879 676.637 145.468L677.082 145.245L677.449 146.464C677.269 148.867 677.173 150.975 677.065 153.303L676.323 153.513C676.418 151.023 676.513 148.621 676.663 146.721C675.617 147.09 674.576 146.142 673.847 144.402L672.986 144.772L672.655 143.972L673.527 143.582C673.267 142.836 673.213 142.251 673.29 141.788L671.956 142.445L671.605 141.749Z" fill="#FFCC00"/>
<path d="M697.857 -19.6644L694.577 -18.0291L701.521 7.50125L704.802 5.86595L697.857 -19.6644Z" fill="#F0AA00"/>
<path d="M691.616 -2.05552C693.534 4.99405 697.97 9.27403 701.522 7.5024C705.076 5.73096 705.925 -1.18343 704.008 -8.23398C702.09 -15.2845 698.132 -19.8004 694.578 -18.029C691.025 -16.2575 689.698 -9.10627 691.616 -2.05552Z" fill="#F0AA00"/>
<path d="M694.664 -3.57625C696.582 3.47332 701.014 7.75469 704.564 5.98445C708.114 4.21439 709.437 -2.93568 707.519 -9.98525C705.601 -17.0358 701.17 -21.316 697.619 -19.5459C694.069 -17.7759 692.746 -10.6258 694.664 -3.57625Z" fill="#FFCC00"/>
<path d="M704.454 -1.52689C703.58 -2.4679 702.636 -3.4033 701.943 -4.50358C699.468 -8.42691 699.283 -14.0233 701.728 -19.2036C704.091 -17.7882 706.308 -14.442 707.519 -9.98614C708.679 -5.71945 708.651 -1.41904 707.662 1.70638C706.552 0.671297 705.488 -0.414001 704.454 -1.52689Z" fill="#FCDC59"/>
<path d="M697.202 -5.10983C698.677 0.308441 701.041 4.10322 703.425 2.91435C705.956 1.65226 707.311 -3.99667 705.837 -9.41494C704.364 -14.833 701.235 -18.2616 698.851 -17.0727C698.266 -16.7814 697.629 -16.4636 696.838 -15.0522C695.59 -12.8252 696.09 -9.19904 697.202 -5.10983Z" fill="#DA8100"/>
<path d="M696.281 -4.38193C697.72 0.906078 700.819 4.22788 703.203 3.039C705.587 1.85013 706.355 -3.40002 704.916 -8.68803C703.479 -13.9759 700.379 -17.2979 697.994 -16.1092C695.61 -14.9203 694.843 -9.66994 696.281 -4.38193Z" fill="#F0AA00"/>
<path d="M697.002 -10.7845L700.441 -12.6505L700.879 -11.6429L700.295 -11.3067C699.583 -10.915 699.346 -10.2377 699.617 -9.25148L701.447 -10.2043L701.765 -9.33123L699.918 -8.40205C700.411 -7.21557 701.152 -6.59089 702.019 -6.99404L702.463 -7.21194L702.829 -5.98508C702.647 -3.57614 702.55 -1.46352 702.442 0.870967L701.701 1.07272C701.798 -1.42311 701.894 -3.83246 702.044 -5.73586C701 -5.37841 699.963 -6.34027 699.237 -8.09504L698.377 -7.73409L698.047 -8.54043L698.917 -8.92163C698.658 -9.6722 698.605 -10.2603 698.682 -10.7241L697.351 -10.0804L697.002 -10.7845Z" fill="#EA9C00"/>
<path d="M697.025 -11.0123L700.471 -12.9127L700.911 -11.9139L700.325 -11.5718C699.612 -11.1723 699.376 -10.496 699.648 -9.51565L701.481 -10.4871L701.799 -9.61993L699.95 -8.67309C700.444 -7.49544 701.187 -6.88254 702.056 -7.29354L702.501 -7.51635L702.868 -6.29734C702.688 -3.89429 702.592 -1.78658 702.485 0.54202L701.743 0.751634C701.838 -1.73831 701.932 -4.14079 702.082 -6.04027C701.036 -5.67104 699.996 -6.61916 699.267 -8.35921L698.406 -7.98943L698.074 -8.78988L698.946 -9.17991C698.686 -9.92557 698.633 -10.5107 698.71 -10.9735L697.376 -10.3161L697.025 -11.0123Z" fill="#FFCC00"/>
<path d="M688.729 44.9555L685.45 46.59L692.394 72.1214L695.673 70.4859L688.729 44.9555Z" fill="#F0AA00"/>
<path d="M682.488 62.5636C684.405 69.6141 688.841 73.8931 692.394 72.1215C695.948 70.35 696.797 63.4356 694.88 56.3851C692.962 49.3345 689.003 44.8187 685.45 46.5901C681.896 48.3615 680.57 55.514 682.488 62.5636Z" fill="#F0AA00"/>
<path d="M685.536 61.0438C687.454 68.0934 691.886 72.3747 695.435 70.6045C698.986 68.8344 700.308 61.6844 698.39 54.6348C696.473 47.5842 692.041 43.3041 688.491 45.0741C684.942 46.8434 683.618 53.9933 685.536 61.0438Z" fill="#FFCC00"/>
<path d="M695.325 63.093C694.452 62.152 693.508 61.2166 692.815 60.1163C690.34 56.193 690.155 50.5966 692.599 45.4162C694.963 46.8317 697.179 50.1778 698.39 54.6337C699.551 58.9004 699.523 63.2008 698.534 66.3263C697.424 65.2902 696.359 64.2049 695.325 63.093Z" fill="#FCDC59"/>
<path d="M688.074 59.51C689.547 64.9281 691.913 68.7231 694.297 67.5342C696.828 66.2721 698.183 60.6232 696.709 55.2049C695.235 49.7868 692.107 46.3583 689.722 47.5472C689.138 47.8385 688.501 48.1562 687.71 49.5677C686.462 51.7937 686.961 55.4208 688.074 59.51Z" fill="#DA8100"/>
<path d="M687.154 60.2369C688.591 65.5247 691.691 68.8467 694.075 67.6578C696.459 66.469 697.227 61.2188 695.789 55.9308C694.35 50.6428 691.251 47.321 688.866 48.5096C686.483 49.6997 685.715 54.9499 687.154 60.2369Z" fill="#F0AA00"/>
<path d="M687.873 53.8354L691.313 51.9693L691.751 52.977L691.167 53.3132C690.454 53.7049 690.218 54.3821 690.489 55.3684L692.319 54.4156L692.636 55.2886L690.79 56.2178C691.282 57.4043 692.023 58.029 692.891 57.6258L693.335 57.4079L693.7 58.6348C693.519 61.0437 693.422 63.1563 693.313 65.4908L692.573 65.6926C692.669 63.1968 692.765 60.7874 692.916 58.884C691.872 59.2415 690.834 58.2796 690.108 56.5248L689.249 56.8858L688.918 56.0794L689.789 55.6982C689.53 54.9477 689.477 54.3596 689.554 53.8958L688.223 54.5395L687.873 53.8354Z" fill="#EA9C00"/>
<path d="M687.896 53.6075L691.343 51.7071L691.782 52.706L691.197 53.0481C690.483 53.4466 690.247 54.1239 690.519 55.1042L692.352 54.1327L692.671 54.9999L690.821 55.9468C691.316 57.1244 692.059 57.7373 692.928 57.3263L693.373 57.1035L693.74 58.3225C693.56 60.7256 693.464 62.8333 693.356 65.1619L692.614 65.3715C692.709 62.8816 692.804 60.4791 692.954 58.5796C691.908 58.9488 690.867 58.0007 690.138 56.2607L689.277 56.6304L688.946 55.83L689.818 55.44C689.558 54.6943 689.504 54.1091 689.582 53.6465L688.248 54.304L687.896 53.6075Z" fill="#FFCC00"/>
<path d="M880.987 7.57964L878.505 4.88267L855.907 18.6437L858.389 21.3407L880.987 7.57964Z" fill="#F0AA00"/>
<path d="M862.337 6.47279C856.097 10.2727 853.218 15.7218 855.906 18.6434C858.595 21.5652 865.473 20.4617 871.713 16.6618C877.954 12.8619 881.193 7.80418 878.504 4.8824C875.816 1.96179 868.577 2.67292 862.337 6.47279Z" fill="#F0AA00"/>
<path d="M864.644 8.97986C858.404 12.7797 855.523 18.2264 858.209 21.1456C860.895 24.0639 868.132 23.3492 874.371 19.5492C880.612 15.7493 883.492 10.3027 880.806 7.38341C878.12 4.46515 870.885 5.17999 864.644 8.97986Z" fill="#FFCC00"/>
<path d="M865.393 18.9535C866.055 17.8528 866.691 16.6862 867.556 15.714C870.638 12.2466 875.963 10.5146 881.618 11.4249C880.915 14.0876 878.316 17.1469 874.371 19.548C870.595 21.8476 866.455 23.0145 863.179 22.9337C863.865 21.5792 864.612 20.2548 865.393 18.9535Z" fill="#FCDC59"/>
<path d="M866.823 10.9917C862.027 13.9123 859.038 17.238 860.843 19.1984C862.758 21.2793 868.561 21.0121 873.357 18.0916C878.153 15.1711 880.578 11.2136 878.775 9.25339C878.332 8.77252 877.85 8.24945 876.275 7.8805C873.787 7.29967 870.441 8.78777 866.823 10.9917Z" fill="#DA8100"/>
<path d="M865.868 10.3089C861.188 13.1593 858.857 17.0587 860.661 19.0191C862.466 20.9795 867.723 20.2591 872.403 17.4088C877.083 14.5584 879.414 10.659 877.61 8.69856C875.805 6.73815 870.548 7.45949 865.868 10.3089Z" fill="#F0AA00"/>
<path d="M873.562 9.47546L876.209 11.9185L875 12.6909L874.558 12.2571C874.014 11.7361 873.145 11.7529 871.989 12.3034L873.394 13.66L872.478 14.183L871.055 12.8036C869.843 13.5205 869.393 14.2822 870.066 14.9415L870.407 15.2844L869.291 15.8304C866.923 16.0414 864.933 16.2048 862.803 16.3072L862.203 15.7354C864.529 15.6011 866.865 15.3819 868.797 15.2021C868.07 14.3936 868.732 13.3471 870.521 12.3109L869.838 11.7027L870.752 11.1885L871.442 11.8001C872.326 11.337 873.067 11.0876 873.676 10.9906L872.633 10.0642L873.562 9.47546Z" fill="#EA9C00"/>
<path d="M873.887 9.3988L876.534 11.8497L875.322 12.63L874.881 12.1942C874.337 11.6712 873.468 11.6919 872.311 12.2493L873.715 13.6098L872.797 14.1397L871.375 12.7563C870.161 13.4821 869.71 14.2507 870.382 14.912L870.724 15.2558L869.606 15.8097C867.236 16.0324 865.244 16.2056 863.112 16.3179L862.512 15.7442C864.841 15.5981 867.177 15.3669 869.113 15.1784C868.386 14.367 869.05 13.3107 870.841 12.2618L870.158 11.6515L871.074 11.1305L871.763 11.744C872.649 11.2751 873.391 11.0217 874 10.9217L872.957 9.99247L873.887 9.3988Z" fill="#FFCC00"/>
<path d="M705.109 116.106L712.544 109.871L754.056 188.746L746.621 194.981L705.109 116.106Z" fill="#F0AA00"/>
<path d="M747.885 137.079C759.348 158.859 762.111 181.992 754.057 188.746C746.002 195.501 731.259 182.414 719.796 160.633C708.332 138.852 704.489 116.627 712.544 109.871C720.598 103.117 736.421 115.297 747.885 137.079Z" fill="#F0AA00"/>
<path d="M740.974 142.873C752.438 164.653 755.208 187.78 747.161 194.527C739.115 201.275 723.298 189.088 711.835 167.307C700.371 145.526 697.601 122.4 705.649 115.652C713.696 108.905 729.51 121.091 740.974 142.873Z" fill="#FFCC00"/>
<path d="M732.469 177.181C731.731 172.402 731.094 167.421 729.811 162.829C725.237 146.443 714.423 133.205 701.059 128.879C700.823 139.245 704.59 153.543 711.836 167.309C718.773 180.488 727.302 190.146 734.741 194.23C734.118 188.516 733.339 182.831 732.469 177.181Z" fill="#FCDC59"/>
<path d="M734.691 147.089C743.501 163.829 747.962 179.589 742.556 184.123C736.819 188.934 723.926 180.244 715.116 163.504C706.305 146.764 703.546 129.52 708.95 124.988C710.276 123.876 711.719 122.666 715.521 123.465C721.522 124.725 728.041 134.457 734.691 147.089Z" fill="#DA8100"/>
<path d="M737.308 145.948C745.906 162.284 748.493 179.201 743.089 183.732C737.683 188.265 726.331 178.698 717.734 162.362C709.136 146.026 706.549 129.109 711.954 124.576C717.359 120.044 728.711 129.611 737.308 145.948Z" fill="#F0AA00"/>
<path d="M721.618 138.175L718.66 140.362C720.038 141.068 721.639 142.38 723.442 144.588L725.399 143.13L727.223 145.711L725.284 147.155C728.764 152.864 729.606 157.683 727.471 159.515C731.659 163.503 736.631 169.033 741.542 175.037L739.825 176.288C735.329 170.779 731.095 165.984 725.984 160.939L723.805 157.315L724.777 156.662C726.692 155.338 726.124 152.074 723.764 148.258L719.721 151.056L717.897 148.475L721.887 145.714C719.498 143.024 717.474 142.308 715.931 143.377L714.676 144.225L712.232 141.247L719.733 135.9L721.618 138.175Z" fill="#EA9C00"/>
<path d="M720.888 137.777L717.931 139.955C719.312 140.649 720.916 141.947 722.723 144.131L724.679 142.68L726.508 145.236L724.57 146.674C728.06 152.331 728.91 157.11 726.777 158.933C730.972 162.884 735.953 168.368 740.874 174.323L739.158 175.568C734.653 170.103 730.411 165.348 725.291 160.349L723.107 156.756L724.077 156.105C725.991 154.789 725.419 151.55 723.052 147.77L719.011 150.554L717.182 147.999L721.17 145.252C718.774 142.59 716.749 141.886 715.207 142.949L713.953 143.792L711.502 140.847L718.998 135.526L720.888 137.777Z" fill="#FFCC00"/>
<path d="M675.265 -79.6762L684.622 -77.1072L643.359 1.89855L634.002 -0.670392L675.265 -79.6762Z" fill="#F0AA00"/>
<path d="M682.345 -32.5641C670.951 -10.7471 653.496 4.682 643.359 1.89864C633.222 -0.884924 635.6 -20.454 646.995 -42.2708C658.391 -64.0885 674.485 -79.8905 684.623 -77.1069C694.758 -74.3238 693.739 -54.3821 682.345 -32.5641Z" fill="#F0AA00"/>
<path d="M673.649 -34.952C662.254 -13.1362 644.809 2.29695 634.681 -0.483711C624.554 -3.26418 625.583 -23.2039 636.977 -45.0209C648.372 -66.8387 665.817 -82.2699 675.944 -79.4895C686.071 -76.709 685.043 -56.77 673.649 -34.952Z" fill="#FFCC00"/>
<path d="M770.103 -36.2915L775.535 -40.8473L805.866 16.7812L800.433 21.337L770.103 -36.2915Z" fill="#F0AA00"/>
<path d="M801.356 -20.9689C809.731 -5.05567 811.75 11.846 805.865 16.7812C799.98 21.7162 789.208 12.1543 780.833 -3.75897C772.458 -19.6734 769.649 -35.9122 775.535 -40.8472C781.42 -45.7824 792.981 -36.8834 801.356 -20.9689Z" fill="#F0AA00"/>
<path d="M796.308 -16.7345C804.683 -0.821283 806.707 16.0765 800.828 21.0065C794.948 25.9366 783.393 17.0326 775.018 1.11817C766.642 -14.7963 764.618 -31.6928 770.498 -36.6229C776.376 -41.5532 787.931 -32.6492 796.308 -16.7345Z" fill="#FFCC00"/>
<path d="M790.093 8.33191C789.554 4.83987 789.088 1.20082 788.15 -2.15412C784.808 -14.1272 776.906 -23.7989 767.143 -26.9587C766.971 -19.3853 769.723 -8.93853 775.017 1.1192C780.086 10.7488 786.317 17.8047 791.752 20.7892C791.298 16.6137 790.73 12.4597 790.093 8.33191Z" fill="#FCDC59"/>
<path d="M791.716 -13.655C798.153 -1.42466 801.413 10.091 797.463 13.4032C793.271 16.9186 783.851 10.5694 777.414 -1.66099C770.977 -13.8913 768.96 -26.4918 772.909 -29.802C773.878 -30.6143 774.932 -31.4985 777.71 -30.9151C782.095 -29.9942 786.859 -22.8847 791.716 -13.655Z" fill="#DA8100"/>
<path d="M793.629 -14.4885C799.911 -2.55337 801.801 9.8074 797.853 13.1188C793.904 16.4299 785.609 9.44065 779.328 -2.49523C773.046 -14.4313 771.156 -26.7911 775.106 -30.1032C779.053 -33.4148 787.348 -26.4245 793.629 -14.4885Z" fill="#F0AA00"/>
<path d="M782.166 -20.1671L780.005 -18.5689C781.012 -18.0543 782.181 -17.0952 783.498 -15.4817L784.928 -16.5463L786.26 -14.6599L784.843 -13.6049C787.386 -9.43401 788.001 -5.91368 786.442 -4.57491C789.502 -1.66105 793.134 2.37951 796.723 6.76504L795.468 7.67942C792.183 3.65477 789.09 0.151732 785.355 -3.53497L783.763 -6.18235L784.473 -6.66011C785.872 -7.62672 785.457 -10.0126 783.734 -12.8008L780.779 -10.7555L779.446 -12.6409L782.362 -14.6582C780.617 -16.6234 779.139 -17.1476 778.011 -16.3663L777.094 -15.7466L775.308 -17.9224L780.789 -21.829L782.166 -20.1671Z" fill="#EA9C00"/>
<path d="M781.632 -20.458L779.472 -18.8676C780.48 -18.3599 781.652 -17.4115 782.972 -15.8157L784.401 -16.8754L785.737 -15.0076L784.321 -13.9576C786.871 -9.82497 787.492 -6.3331 785.934 -5.0012C788.999 -2.11483 792.638 1.89236 796.234 6.24256L794.98 7.15302C791.689 3.15978 788.59 -0.31382 784.848 -3.96617L783.252 -6.59098L783.961 -7.06678C785.359 -8.02848 784.941 -10.3946 783.212 -13.1574L780.259 -11.1229L778.923 -12.9897L781.837 -14.9972C780.088 -16.9418 778.608 -17.4561 777.481 -16.6797L776.565 -16.064L774.774 -18.2153L780.252 -22.1031L781.632 -20.458Z" fill="#FFCC00"/>
<path d="M908.75 141.151L918.871 147.562L870.505 232.074L860.384 225.663L908.75 141.151Z" fill="#F0AA00"/>
<path d="M914.541 202.395C901.185 225.732 881.468 239.02 870.505 232.074C859.541 225.127 862.95 201.509 876.306 178.172C889.663 154.834 907.907 140.616 918.872 147.562C929.834 154.508 927.897 179.057 914.541 202.395Z" fill="#F0AA00"/>
<path d="M905.134 196.436C891.778 219.773 872.072 233.067 861.117 226.127C850.164 219.188 852.112 194.644 865.468 171.307C878.824 147.969 898.53 134.676 909.484 141.615C920.438 148.555 918.49 173.098 905.134 196.436Z" fill="#FFCC00"/>
<path d="M868.486 200.746C872.462 197.798 876.682 194.884 880.164 191.349C892.593 178.738 898.449 159.855 894.586 141.676C884.885 145.83 873.909 156.558 865.468 171.308C857.386 185.431 853.49 199.988 854.094 210.825C859 207.617 863.787 204.232 868.486 200.746Z" fill="#FCDC59"/>
<path d="M897.553 190.565C887.288 208.501 875.371 220.705 868.012 216.043C860.202 211.096 860.642 191.621 870.907 173.685C881.172 155.75 895.459 144.989 902.815 149.65C904.62 150.793 906.584 152.038 908.082 157.025C910.444 164.894 905.299 177.03 897.553 190.565Z" fill="#DA8100"/>
<path d="M900.144 193.274C890.127 210.777 876.041 221.187 868.684 216.526C861.327 211.865 863.481 193.897 873.498 176.394C883.515 158.891 897.601 148.481 904.959 153.142C912.316 157.804 910.161 175.771 900.144 193.274Z" fill="#F0AA00"/>
<path d="M901.827 170.385L897.471 168.982C897.325 170.829 896.572 173.299 894.924 176.461L897.747 177.668L895.783 181.05L893.011 179.729C888.877 185.85 884.429 188.317 881.055 186.662C880.12 191.852 878.618 198.148 877.069 204.403L874.792 202.268C876.12 196.8 877.339 191.68 878.493 185.608L880.708 182.539L882.119 183.215C884.877 184.61 888.027 182.819 890.816 178.751L884.877 176.399L886.745 173.503L892.657 175.562C894.544 171.626 894.275 169.257 891.956 168.635L890.054 168.17L892.574 163.94L903.863 166.626L901.827 170.385Z" fill="#EA9C00"/>
<path d="M901.974 169.316L897.605 167.979C897.46 169.821 896.706 172.292 895.056 175.467L897.887 176.63L895.92 180.028L893.14 178.75C888.998 184.906 884.54 187.425 881.157 185.823C880.223 191.006 878.721 197.299 877.172 203.552L874.889 201.457C876.216 195.992 877.435 190.875 878.588 184.81L880.806 181.721L882.222 182.376C884.988 183.728 888.145 181.899 890.938 177.808L884.983 175.547L886.853 172.636L892.782 174.604C894.672 170.655 894.4 168.3 892.074 167.712L890.168 167.276L892.691 163.027L904.013 165.543L901.974 169.316Z" fill="#FFCC00"/>
<path d="M933.055 -34.3492L941.769 -35.8499L957.139 34.3591L948.423 35.8607L933.055 -34.3492Z" fill="#F0AA00"/>
<path d="M966.549 -3.6906C970.793 15.697 966.579 32.7331 957.138 34.3589C947.697 35.9857 937.868 21.3688 933.625 1.98134C929.381 -17.4072 932.329 -34.2241 941.77 -35.8499C951.211 -37.4757 962.305 -23.0792 966.549 -3.6906Z" fill="#F0AA00"/>
<path d="M958.448 -2.29484C962.693 17.0928 958.487 34.1265 949.055 35.752C939.624 37.3766 928.538 22.9767 924.294 3.58908C920.051 -15.7995 924.256 -32.8332 933.687 -34.4578C943.119 -36.0824 954.205 -21.6834 958.448 -2.29484Z" fill="#FFCC00"/>
<path d="M940.522 18.21C941.238 14.6278 942.106 10.9438 942.262 7.28397C942.821 -5.77312 936.678 -19.0099 925.562 -27.0486C922.308 -19.9711 921.612 -8.66378 924.294 3.58893C926.862 15.3211 931.938 25.219 937.634 30.8528C938.731 26.6675 939.675 22.4442 940.522 18.21Z" fill="#FCDC59"/>
<path d="M951.392 -1.75497C954.654 13.1459 954.172 25.7261 947.836 26.8174C941.111 27.9763 931.71 17.0977 928.449 2.19679C925.188 -12.7041 927.68 -25.6678 934.015 -26.7593C935.569 -27.0272 937.26 -27.3183 940.549 -25.3298C945.739 -22.1893 948.931 -12.9987 951.392 -1.75497Z" fill="#DA8100"/>
<path d="M954.152 -1.55522C957.335 12.9859 954.778 25.6579 948.445 26.7496C942.109 27.8409 934.392 16.9389 931.209 2.39772C928.027 -12.1434 930.583 -24.8154 936.919 -25.9067C943.253 -26.9984 950.969 -16.0954 954.152 -1.55522Z" fill="#F0AA00"/>
<path d="M943.148 -12.6787L939.521 -11.6653C940.508 -10.8356 941.466 -9.48582 942.279 -7.40843L944.653 -7.96556L945.368 -5.53844L943.028 -5.04697C944.251 0.0501959 943.416 3.6213 940.766 4.06532C943.501 8.22302 946.581 13.9152 949.558 20.1548L947.578 20.0738C944.824 14.4329 942.186 9.57796 938.857 4.4474L937.976 1.40698L939.139 1.29806C941.431 1.05195 942.033 -1.34298 941.192 -4.69148L936.296 -3.87623L935.535 -6.0678L940.391 -6.99682C939.212 -9.51661 937.611 -10.4836 935.716 -10.0398L934.174 -9.69817L933.127 -12.2593L942.385 -14.8726L943.148 -12.6787Z" fill="#EA9C00"/>
<path d="M942.645 -13.1519L939.016 -12.1238C940.006 -11.3098 940.967 -9.97869 941.785 -7.9278L944.161 -8.49376L944.881 -6.09412L942.54 -5.59283C943.773 -0.550824 942.944 2.99299 940.292 3.44585C943.037 7.55252 946.129 13.1809 949.118 19.3567L947.138 19.2835C944.372 13.7006 941.723 8.90059 938.382 3.83284L937.494 0.825789L938.659 0.71313C940.953 0.457201 941.552 -1.91809 940.703 -5.22931L935.803 -4.39344L935.036 -6.55753L939.896 -7.50618C938.711 -9.99259 937.105 -10.9402 935.209 -10.4873L933.666 -10.1398L932.613 -12.6656L941.878 -15.3162L942.645 -13.1519Z" fill="#FFCC00"/>
<path d="M1001.12 39.9827L1011.24 46.3945L962.872 130.906L952.75 124.494L1001.12 39.9827Z" fill="#F0AA00"/>
<path d="M1006.91 101.227C993.551 124.564 973.834 137.851 962.872 130.905C951.907 123.959 955.317 100.34 968.673 77.0033C982.029 53.6653 1000.27 39.4471 1011.24 46.3937C1022.2 53.3397 1020.26 77.8888 1006.91 101.227Z" fill="#F0AA00"/>
<path d="M997.5 95.2681C984.144 118.605 964.438 131.899 953.484 124.96C942.53 118.021 944.479 93.4767 957.835 70.1397C971.191 46.8017 990.896 33.5087 1001.85 40.4479C1012.8 47.3873 1010.86 71.9294 997.5 95.2681Z" fill="#FFCC00"/>
<path d="M960.853 99.5777C964.828 96.6292 969.048 93.7154 972.531 90.1817C984.959 77.5708 990.816 58.6875 986.953 40.5084C977.252 44.6621 966.277 55.3907 957.836 70.1408C949.754 84.2631 945.857 98.82 946.461 109.658C951.367 106.449 956.153 103.063 960.853 99.5777Z" fill="#FCDC59"/>
<path d="M989.919 89.3975C979.654 107.334 967.737 119.537 960.379 114.875C952.568 109.927 953.009 90.4523 963.274 72.5168C973.539 54.5803 987.825 43.8202 995.182 48.4814C996.987 49.6247 998.951 50.8694 1000.45 55.8561C1002.81 63.7272 997.665 75.8627 989.919 89.3975Z" fill="#DA8100"/>
<path d="M992.511 92.1067C982.494 109.61 968.408 120.02 961.051 115.359C953.694 110.697 955.848 92.73 965.865 75.226C975.883 57.7231 989.968 47.3139 997.326 51.9743C1004.68 56.6355 1002.53 74.6026 992.511 92.1067Z" fill="#F0AA00"/>
<path d="M994.194 69.217L989.838 67.8137C989.692 69.661 988.939 72.1313 987.291 75.293L990.114 76.5007L988.151 79.883L985.379 78.5619C981.244 84.6827 976.796 87.1506 973.423 85.4951C972.488 90.685 970.986 96.9808 969.436 103.237L967.159 101.102C968.487 95.6338 969.707 90.5136 970.861 84.4422L973.075 81.3729L974.487 82.0491C977.245 83.4438 980.394 81.6526 983.183 77.5848L977.245 75.2325L979.113 72.337L985.025 74.3958C986.912 70.4596 986.643 68.0911 984.323 67.4687L982.422 67.0035L984.942 62.7742L996.23 65.4597L994.194 69.217Z" fill="#EA9C00"/>
<path d="M994.34 68.149L989.971 66.8115C989.825 68.6537 989.072 71.1252 987.422 74.2996L990.253 75.4632L988.286 78.861L985.506 77.5831C981.364 83.7392 976.906 86.2592 973.523 84.6556C972.589 89.8387 971.087 96.1315 969.538 102.385L967.254 100.289C968.582 94.8238 969.8 89.7065 970.953 83.6419L973.171 80.553L974.587 81.2077C977.353 82.5592 980.51 80.7307 983.304 76.6394L977.348 74.3783L979.219 71.4671L985.147 73.4354C987.037 69.4876 986.765 67.1317 984.439 66.5437L982.532 66.107L985.056 61.858L996.377 64.3747L994.34 68.149Z" fill="#FFCC00"/>
<path d="M849.374 13.8856L850.283 16.748L852.593 18.6676L849.73 19.5765L847.811 21.8863L846.902 19.0239L844.592 17.1044L847.454 16.1954L849.374 13.8856Z" fill="white"/>
<path d="M616.058 8.87648L617.656 13.9063L621.714 17.2801L616.685 18.8773L613.311 22.9366L611.713 17.9058L607.654 14.533L612.684 12.9348L616.058 8.87648Z" fill="white"/>
<path d="M638.917 42.2268L639.599 44.3766L641.334 45.818L639.184 46.5014L637.743 48.2362L637.059 46.0862L635.325 44.6438L637.474 43.9614L638.917 42.2268Z" fill="white"/>
<path d="M657.959 251.856L659.945 258.109L664.991 262.303L658.738 264.289L654.544 269.335L652.558 263.081L647.512 258.888L653.765 256.902L657.959 251.856Z" fill="white"/>
<path d="M699.043 252.709L699.955 255.578L702.27 257.502L699.401 258.413L697.477 260.728L696.566 257.859L694.251 255.935L697.12 255.024L699.043 252.709Z" fill="white"/>
<path d="M909.898 175.099L911.526 180.225L915.662 183.663L910.536 185.291L907.099 189.426L905.471 184.301L901.335 180.863L906.46 179.236L909.898 175.099Z" fill="white"/>
<path d="M742.61 135.115L744.32 140.497L748.663 144.107L743.28 145.818L739.67 150.161L737.961 144.778L733.617 141.167L739 139.458L742.61 135.115Z" fill="white"/>
<path d="M907.485 -16.2445L909.472 -9.98929L914.519 -5.79362L908.264 -3.80719L904.069 1.24091L902.082 -5.01506L897.034 -9.20995L903.29 -11.1972L907.485 -16.2445Z" fill="white"/>
<path d="M1020.66 2.86299L1022.92 9.9599L1028.64 14.7193L1021.55 16.9733L1016.79 22.6989L1014.53 15.603L1008.81 10.8437L1015.9 8.58961L1020.66 2.86299Z" fill="white"/>
<path d="M935.186 64.0528L936.254 67.4097L938.962 69.6609L935.605 70.727L933.353 73.4364L932.287 70.0787L929.579 67.8275L932.935 66.7614L935.186 64.0528Z" fill="white"/>
<path d="M1038.26 106.042L1039.31 109.344L1041.97 111.559L1038.67 112.608L1036.46 115.272L1035.41 111.97L1032.74 109.756L1036.05 108.706L1038.26 106.042Z" fill="white"/>
<path d="M1040.8 68.5383L1041.83 71.7875L1044.45 73.9667L1041.2 74.9988L1039.02 77.6216L1037.99 74.3714L1035.37 72.192L1038.62 71.1601L1040.8 68.5383Z" fill="white"/>
</g>
</g>
<defs>
<filter id="filter0_f_143_1951" x="725.697" y="127.697" width="31.6094" height="31.6099" filterUnits="userSpaceOnUse" color-interpolation-filters="sRGB">
<feFlood flood-opacity="0" result="BackgroundImageFix"/>
<feBlend mode="normal" in="SourceGraphic" in2="BackgroundImageFix" result="shape"/>
<feGaussianBlur stdDeviation="1" result="effect1_foregroundBlur_143_1951"/>
</filter>
<linearGradient id="paint0_linear_143_1951" x1="-2.25228e-07" y1="132" x2="1152.2" y2="46.6836" gradientUnits="userSpaceOnUse">
<stop stop-color="#533FFA"/>
<stop offset="0.543269" stop-color="#DE63AA"/>
<stop offset="1" stop-color="#FEB654"/>
</linearGradient>
<clipPath id="clip0_143_1951">
<rect width="1148" height="256" fill="white"/>
</clipPath>
</defs>
</svg>
