<svg width="383" height="367" viewBox="0 0 383 367" fill="none" xmlns="http://www.w3.org/2000/svg">
<path opacity="0.22" d="M3.06789 198.915C-11.5721 267.391 31.9242 251.078 13.8912 296.878C-4.44219 343.441 43.4442 367.25 75.4295 366.232C117.423 364.896 114.827 354.901 166.562 350.616C217.932 346.361 226.31 364.542 267.655 358.201C297.508 353.623 349.346 335.525 359.855 300.674C365.211 282.91 348.303 267.1 344.773 244.451C337.726 199.238 323.762 147.888 225.022 147.159C162.534 146.697 141.131 143.049 93.8135 151.118C48.1959 158.897 14.3805 146.001 3.06789 198.915Z" fill="#FFBC0A"/>
<path d="M340.404 24.0285C326.773 27.8813 324.276 31.0045 321.196 48.057C318.116 31.0045 315.619 27.8813 301.988 24.0285C315.619 20.1757 318.116 17.0525 321.196 0C324.276 17.0525 326.773 20.1757 340.404 24.0285Z" fill="#FFBC0A"/>
<path d="M38.3918 114.072C25.6734 119.819 23.3441 124.478 20.4705 149.915C17.5969 124.478 15.2676 119.819 2.54919 114.072C15.2676 108.325 17.5969 103.666 20.4705 78.2295C23.3441 103.666 25.6734 108.325 38.3918 114.072Z" fill="#FFBB78"/>
<path d="M382.46 275.041C369.741 280.787 367.412 285.447 364.538 310.883C361.665 285.446 359.335 280.787 346.617 275.041C359.335 269.294 361.665 264.634 364.538 239.198C367.412 264.634 369.741 269.293 382.46 275.041Z" fill="white"/>
<path d="M189.248 217.796L209.302 211.474C208.528 206.992 208.17 203.014 207.852 199.475C207.208 192.311 206.691 186.589 203.099 181.068L183.533 186.995C185.55 189.869 186.26 195.854 187.164 203.479C187.696 207.969 188.294 213.008 189.248 217.796Z" fill="#FFBC0A"/>
<path d="M202.361 114.946C200.176 116.886 197.003 118.71 193.327 120.823C184.403 125.953 173.418 132.269 169.086 144.253C172.754 143.151 179.087 141.281 186.488 139.231L186.486 139.224C198.024 135.877 204.312 132.245 206.875 127.448C208.511 124.385 208.62 120.733 207.208 116.284C206.673 114.599 205.924 112.993 204.992 111.495C204.517 112.66 203.644 113.806 202.361 114.946Z" fill="#FFBC0A"/>
<path d="M238.918 140.278L227.6 132.301C212.449 134.309 185.993 141.802 173.433 145.509C203.674 146.27 230.501 141.842 238.918 140.278Z" fill="#FFBC0A"/>
<path d="M201.926 178.868C197.081 169.397 176.571 154.956 168.599 149.583C169.558 151.566 170.913 154.043 172.314 156.604C177.468 166.027 183.75 177.511 182.786 184.666L201.926 178.868Z" fill="#FFBC0A"/>
<path d="M140.481 159.638C122.751 162.192 106.252 169.195 101.2 171.48L109.513 179.667C117.933 174.364 128.331 169.81 137.541 165.777C144.928 162.542 152.112 159.397 157.281 156.276C152.593 158.51 146.987 159.637 140.495 159.638C140.49 159.638 140.486 159.638 140.481 159.638Z" fill="#FFBC0A"/>
<path d="M102.951 202.882L111.149 211.747C108.568 201.616 107.019 193.824 106.539 188.546C106.177 184.568 106.405 182.147 107.28 180.9L99.1508 172.895C98.5633 174.711 97.8603 181.169 102.951 202.882Z" fill="#FFBC0A"/>
<path d="M103.699 207.292L118.081 295.011L127.113 304.91L112.418 216.72L103.699 207.292Z" fill="#FFBC0A"/>
<path d="M189.696 220.218L204.587 314.205L222.473 307.966L209.678 213.919L189.696 220.218Z" fill="#FFBC0A"/>
<path d="M168.841 138.902C169.131 137.96 171.244 131.453 176.097 125.021C182.842 116.082 191.721 111.602 201.803 112.03C202.751 110.911 203.145 109.811 202.879 108.641C200.873 106.343 198.378 104.427 195.534 103.057C192.68 101.683 190.102 100.997 187.76 100.997C185.877 100.997 184.147 101.44 182.546 102.325C178.472 104.578 175.229 109.657 172.631 117.85C170.798 123.63 169.285 131.068 168.034 140.467C168.291 139.934 168.559 139.412 168.841 138.902Z" fill="#FFBC0A"/>
<path d="M165.349 142.16C163.492 134.055 154.325 130.597 152.495 129.983L145.444 131.975C154.046 137.117 161.768 142.139 165.086 144.325C165.172 143.591 165.26 142.87 165.349 142.16Z" fill="#FFBC0A"/>
<path d="M161.333 144.797C151.374 138.334 125.818 122.184 115.551 119.84C118.492 122.294 124.34 126.971 131.474 131.618C142.75 138.962 152.955 143.454 161.333 144.797Z" fill="#FFBC0A"/>
<path d="M110.388 150.97C117.35 153.558 127.833 156.731 138.234 157.147C150.073 157.621 158.922 154.415 164.551 147.615C155.076 147.066 143.5 142.373 130.111 133.648C121.566 128.08 114.838 122.467 112.635 120.575C112.634 120.576 112.634 120.577 112.634 120.578L105.845 141.58C104.599 145.435 106.594 149.56 110.388 150.97Z" fill="#FFBC0A"/>
<path d="M170.437 147.864C178.97 153.62 199.469 168.168 204.295 178.15L265.887 159.492C265.517 159.096 265.105 158.735 264.653 158.417L241.692 142.234C237.524 143.074 205.964 149.147 170.437 147.864Z" fill="#EC7D10"/>
<path d="M198.98 114.481C190.784 114.903 183.755 118.932 178.049 126.494C177.067 127.795 176.204 129.104 175.448 130.368C180.664 125.283 186.92 121.685 192.11 118.703C194.85 117.127 197.186 115.756 198.98 114.481Z" fill="#EC7D10"/>
<path d="M203.071 134.858C210.789 132.942 218.455 131.239 224.696 130.254L210.551 120.283C210.857 123.375 210.354 126.123 209.031 128.599C207.791 130.921 205.847 132.982 203.071 134.858Z" fill="#EC7D10"/>
<path d="M135.363 234.783L186.902 218.535C185.898 213.576 185.283 208.384 184.736 203.766C184.222 199.429 183.736 195.333 183.03 192.35C182.314 189.328 181.539 188.175 180.94 187.78L132.436 202.474C132.16 202.557 131.88 202.61 131.599 202.638L134.749 234.918C134.955 234.89 135.161 234.847 135.363 234.783Z" fill="#EC7D10"/>
<path d="M210.287 199.255C210.593 202.659 210.938 206.476 211.656 210.731L269.263 192.571C269.933 192.36 270.359 191.724 270.299 191.025L267.997 164.23C267.918 163.313 267.682 162.431 267.31 161.615L205.529 180.331C209.107 186.145 209.635 191.993 210.287 199.255Z" fill="#EC7D10"/>
<path d="M159.476 157.804C154.167 161.166 146.567 164.494 138.522 168.017C129.57 171.936 119.485 176.353 111.304 181.43L129.82 199.663C130.322 200.158 131.053 200.338 131.727 200.134L180.109 185.477C182.087 179.566 174.943 166.504 170.169 157.778C168.79 155.257 167.557 153.004 166.622 151.11C165.157 153.911 162.071 156.161 159.476 157.804Z" fill="#EC7D10"/>
<path d="M131.506 233.759C131.725 233.995 131.972 234.197 132.238 234.366L129.093 202.134C128.736 201.941 128.402 201.699 128.104 201.406L109.104 182.695C108.892 183.357 108.636 184.987 109.019 188.795C109.613 194.699 111.513 203.701 114.668 215.552L131.506 233.759Z" fill="#EC7D10"/>
<path d="M136.098 237.115C135.494 237.305 134.873 237.398 134.256 237.398C132.558 237.398 130.894 236.698 129.711 235.419L115.442 219.99L130.146 308.234L150.088 330.091L136.169 237.093L136.098 237.115Z" fill="#EC7D10"/>
<path d="M138.53 236.348L152.797 331.673C153.532 331.801 154.301 331.746 155.037 331.489L202.241 315.023L187.339 220.961L138.53 236.348Z" fill="#EC7D10"/>
<path d="M265.154 196.43L212.044 213.173L224.829 307.144L270.544 291.197C272.141 290.64 273.154 289.074 273.009 287.389L265.154 196.43Z" fill="#EC7D10"/>
<path d="M88.7499 191.128L101.666 274.669C101.952 276.521 102.772 278.232 104.034 279.616L115.06 291.7L100.687 204.035L88.7499 191.128Z" fill="#EC7D10"/>
<path d="M166.006 137.258C166.633 132.922 167.317 129.058 168.074 125.583L156.321 128.902C159.303 130.326 163.5 132.958 166.006 137.258Z" fill="#EC7D10"/>
<path d="M97.3095 171.081L79.3473 153.393C79.1655 154.198 79.1345 155.05 79.2817 155.912L83.1543 178.595C83.5489 180.907 84.5995 183.039 86.1915 184.761L99.6254 199.287C97.0654 187.645 95.0334 174.905 97.3095 171.081Z" fill="#EC7D10"/>
<path d="M130.974 158.916C122.784 157.736 115.069 155.319 109.535 153.262C105.329 151.698 102.793 147.614 103.047 143.331L83.9248 148.608C82.464 149.011 81.2557 149.883 80.4247 151.022L99.336 169.645C102.592 168.135 115.572 162.37 130.974 158.916Z" fill="#EC7D10"/>
<path d="M320.295 125.961L319.907 125.926L317.744 117.12L317.983 117.073C318.555 116.959 319.151 116.897 319.754 116.888L319.901 116.886L320.854 118.804C321.505 120.093 322.308 120.664 323.174 120.451C323.762 120.307 324.148 119.874 324.241 119.262C323.413 116.771 320.774 115.412 317.656 115.877L317.445 115.908L316.681 112.798L315.76 113.025L316.522 116.124L316.315 116.19C312.893 117.291 310.987 120.437 311.781 123.672C312.536 126.742 314.673 128.231 318.928 128.648L319.578 128.712L321.762 137.601L321.529 137.653C320.65 137.848 319.781 137.957 318.947 137.978L318.799 137.982L317.853 136.078C316.978 134.328 316.172 134.274 315.567 134.422C314.947 134.575 314.606 134.948 314.467 135.629C315.297 138.325 318.316 139.648 321.833 138.848L322.056 138.797L322.917 142.301L323.838 142.074L322.967 138.53L323.165 138.459C326.822 137.145 328.589 134.273 327.776 130.963C327.019 127.88 324.781 126.384 320.295 125.961ZM318.909 125.84L318.582 125.809C315.848 125.549 314.339 124.467 313.831 122.403C313.296 120.222 314.324 118.381 316.581 117.479L316.83 117.379L318.909 125.84ZM322.924 137.238L322.675 137.338L320.579 128.808L320.916 128.85C323.451 129.169 325.138 129.835 325.71 132.164C326.271 134.45 325.256 136.299 322.924 137.238Z" fill="#FFD102"/>
<path d="M314.286 122.292C314.725 124.079 315.968 125.018 318.299 125.309L316.508 118.017C314.632 118.864 313.823 120.409 314.286 122.292Z" fill="#EF9105"/>
<path d="M321.196 129.359L322.999 136.699C324.617 135.964 325.454 134.711 325.388 133.164C325.376 132.877 325.333 132.581 325.258 132.275C324.825 130.515 323.749 129.73 321.196 129.359Z" fill="#EF9105"/>
<path d="M314.051 104.517C301.339 107.64 293.538 120.523 296.661 133.235C299.785 145.946 312.667 153.747 325.379 150.624C338.091 147.501 345.892 134.618 342.768 121.906C339.645 109.194 326.762 101.394 314.051 104.517ZM327.576 135.651C326.745 137.036 325.345 138.13 323.522 138.825L324.404 142.416L322.577 142.865L321.714 139.351C318.018 140.106 314.867 138.627 314.005 135.706L313.989 135.653L313.999 135.598C314.164 134.703 314.641 134.17 315.458 133.969C316.59 133.69 317.484 134.294 318.272 135.869L319.085 137.507C319.77 137.481 320.478 137.394 321.196 137.247L319.205 129.144L318.884 129.112C314.459 128.678 312.129 127.034 311.33 123.783C310.491 120.369 312.436 117.052 315.967 115.815L315.197 112.682L317.024 112.233L317.799 115.386C319.338 115.194 320.794 115.424 322.021 116.054C323.339 116.731 324.266 117.808 324.703 119.169L324.719 119.218L324.712 119.269C324.61 120.098 324.077 120.709 323.286 120.903C322.518 121.092 321.4 120.917 320.438 119.012L319.616 117.357C319.175 117.371 318.739 117.414 318.315 117.486L320.281 125.491L320.339 125.496C324.994 125.935 327.427 127.587 328.23 130.853C328.653 132.574 328.427 134.234 327.576 135.651Z" fill="#EF9105"/>
<path d="M312.194 96.9599C295.315 101.107 284.957 118.213 289.104 135.091C293.252 151.97 310.357 162.328 327.236 158.181C344.115 154.034 354.472 136.928 350.325 120.05C346.178 103.171 329.073 92.813 312.194 96.9599ZM341.617 140.833C338.075 146.683 332.466 150.804 325.824 152.436C319.182 154.068 312.303 153.016 306.452 149.473C300.602 145.93 296.482 140.322 294.85 133.68C293.218 127.038 294.27 120.158 297.812 114.308C301.355 108.458 306.964 104.337 313.605 102.705C320.247 101.073 327.127 102.125 332.977 105.668C338.828 109.21 342.948 114.819 344.58 121.461C346.212 128.103 345.16 134.983 341.617 140.833Z" fill="#FFD00D"/>
<path d="M255.722 54.0829L255.267 53.8292L257.429 41.9162L257.747 41.9885C258.507 42.162 259.267 42.4109 260.007 42.7287L260.188 42.8061L260.304 45.6634C260.395 47.5905 261.062 48.7226 262.234 48.9354C263.029 49.0797 263.736 48.7642 264.183 48.0682C264.531 44.5802 262.055 41.4855 258.001 40.3527L257.727 40.2762L258.491 36.0685L257.245 35.8423L256.484 40.0353L256.196 40.0036C251.425 39.4804 247.387 42.2769 246.592 46.6525C245.838 50.8065 247.633 53.7853 252.592 56.6138L253.349 57.0449L251.166 69.0711L250.854 69.0071C249.676 68.7655 248.557 68.4257 247.529 67.9965L247.346 67.9201L247.231 65.0836C247.119 62.4737 246.165 61.9684 245.348 61.8199C244.509 61.6676 243.889 61.9364 243.349 62.6906C242.891 66.4292 245.849 69.6874 250.572 70.6298L250.872 70.6896L250.012 75.4298L251.259 75.6561L252.129 70.8615L252.409 70.8826C257.583 71.274 261.301 68.7357 262.114 64.2586C262.87 60.0874 260.959 57.0439 255.722 54.0829ZM254.097 53.1812L253.716 52.9652C250.525 51.1581 249.275 49.0161 249.781 46.2244C250.317 43.2743 252.573 41.5905 255.817 41.7204L256.175 41.7348L254.097 53.1812ZM252.779 69.2618L252.42 69.2484L254.515 57.7088L254.902 57.9437C257.819 59.714 259.512 61.4439 258.94 64.5956C258.378 67.6877 256.133 69.3885 252.779 69.2618Z" fill="#FFD102"/>
<path d="M250.396 46.3358C249.957 48.754 250.96 50.5764 253.644 52.2011L255.434 42.3364C252.686 42.3467 250.858 43.7892 250.396 46.3358Z" fill="#EF9105"/>
<path d="M254.967 58.7161L253.165 68.646C255.536 68.6319 257.241 67.5609 258.004 65.6389C258.145 65.2831 258.254 64.8978 258.329 64.485C258.761 62.1039 257.877 60.5605 254.967 58.7161Z" fill="#EF9105"/>
<path d="M259.797 24.5416C242.6 21.4203 226.07 32.8718 222.948 50.069C219.827 67.2661 231.279 83.796 248.476 86.9173C265.673 90.0386 282.203 78.5871 285.324 61.3899C288.445 44.1928 276.994 27.6629 259.797 24.5416ZM259.315 69.8635C257.546 71.0984 255.244 71.6699 252.643 71.5231L251.761 76.381L249.289 75.9323L250.152 71.1784C245.236 70.084 242.201 66.564 242.742 62.5346L242.752 62.461L242.794 62.3998C243.484 61.3976 244.355 61.0082 245.46 61.2085C246.992 61.4866 247.753 62.7103 247.855 65.0587L247.954 67.4981C248.802 67.8395 249.713 68.1192 250.669 68.3317L252.659 57.3691L252.284 57.156C247.126 54.2143 245.182 50.941 245.981 46.5426C246.819 41.925 250.997 38.9407 255.976 39.3579L256.745 35.1198L259.217 35.5685L258.443 39.8338C260.423 40.4383 262.073 41.5112 263.225 42.9483C264.462 44.4917 265.006 46.3102 264.797 48.2072L264.789 48.2754L264.754 48.3343C264.177 49.2891 263.194 49.7435 262.124 49.5493C261.085 49.3608 259.818 48.5384 259.683 45.692L259.583 43.2264C259.038 43.0021 258.483 42.8168 257.927 42.6738L255.962 53.5032L256.029 53.5406C261.464 56.6136 263.53 59.9535 262.728 64.3711C262.305 66.7007 261.124 68.5999 259.315 69.8635Z" fill="#EF9105"/>
<path d="M261.653 14.3178C238.818 10.1735 216.87 25.3786 212.725 48.2129C208.581 71.0471 223.786 92.9959 246.62 97.1402C269.454 101.285 291.403 86.0794 295.548 63.2452C299.692 40.411 284.487 18.4625 261.653 14.3178ZM273.606 83.8327C266.099 89.033 257.016 90.9991 248.031 89.3681C239.046 87.7373 231.233 82.705 226.033 75.1981C220.832 67.6916 218.867 58.609 220.497 49.6238C222.128 40.6385 227.16 32.826 234.667 27.6257C242.174 22.4254 251.257 20.4593 260.242 22.0903C269.227 23.721 277.04 28.7534 282.24 36.2602C287.44 43.7671 289.406 52.8497 287.775 61.835C286.144 70.8199 281.112 78.6324 273.606 83.8327Z" fill="#FFD00D"/>
</svg>
